<svg width="16" height="17" viewBox="0 0 16 17" fill="none" xmlns="http://www.w3.org/2000/svg">
<path d="M8 6.25012V15.2501M8 6.25012C9.24264 6.25012 10.25 5.24276 10.25 4.00012C10.25 2.75748 9.24264 1.75012 8 1.75012C6.75736 1.75012 5.75 2.75748 5.75 4.00012C5.75 5.24276 6.75736 6.25012 8 6.25012ZM8 15.2501C6.4087 15.2501 4.88258 14.618 3.75736 13.4928C2.63214 12.3675 2 10.8414 2 9.25012M8 15.2501C9.5913 15.2501 11.1174 14.618 12.2426 13.4928C13.3679 12.3675 14 10.8414 14 9.25012M14.75 9.25012H13.25M2.75 9.25012H1.25" stroke="#4E70E9" stroke-width="2" stroke-linecap="round" stroke-linejoin="round"/>
</svg>
