<svg width="36" height="40" viewBox="0 0 36 40" fill="none" xmlns="http://www.w3.org/2000/svg">
<path d="M16.0001 30C16.6309 30.2753 17.3118 30.4174 18.0001 30.4174C18.6884 30.4174 19.3692 30.2753 20.0001 30M10.0001 18L14.0001 22M26.0001 18L22.0001 22M18.0001 2C8.67206 2 3.20806 6.662 2.27606 13.19C1.34098 19.2196 2.77432 25.3772 6.27606 30.374C7.9614 32.8377 10.1401 34.9244 12.6741 36.502C16.0061 38.502 20.0021 38.502 23.3341 36.502C25.868 34.9244 28.0467 32.8377 29.7321 30.374C33.2196 25.3709 34.6516 19.219 33.7321 13.19C32.8001 6.66 27.3361 2 18.0081 2H18.0001Z" stroke="#4E70E9" stroke-width="3" stroke-linecap="round" stroke-linejoin="round"/>
</svg>
