<svg width="18" height="19" viewBox="0 0 18 19" fill="none" xmlns="http://www.w3.org/2000/svg">
<path d="M13.3365 13.2726L10.7768 13.4489L10.7595 13.4504C9.92179 13.5179 9.09904 13.7016 8.31679 13.9941L6.66904 14.5896C6.31916 14.716 5.94692 14.7686 5.57572 14.7443C5.20452 14.7199 4.84237 14.619 4.51204 14.4479C4.18816 14.2823 3.9042 14.0482 3.67988 13.7618C3.45557 13.4755 3.29626 13.1437 3.21304 12.7896L2.31004 8.81989C2.23751 8.49954 2.2313 8.16773 2.29179 7.84489C2.35228 7.52205 2.4782 7.215 2.66179 6.94264C3.04295 6.38035 3.62896 5.9895 4.29454 5.85364L11.6768 4.30864C13.0793 4.01464 14.4638 4.86664 14.7698 6.21139L15.69 10.2554C15.7693 10.6057 15.7694 10.9693 15.6902 11.3196C15.6111 11.6699 15.4547 11.9982 15.2325 12.2804C15.0037 12.5695 14.7167 12.8072 14.39 12.9781C14.0634 13.1491 13.7045 13.2494 13.3365 13.2726Z" stroke="#FF0000" stroke-width="2" stroke-linecap="round" stroke-linejoin="round"/>
<path d="M7.50002 8.00015L8.22902 11.0002L11.25 8.75015L7.50002 8.00015Z" stroke="#FF0000" stroke-width="2" stroke-linecap="round" stroke-linejoin="round"/>
</svg>
