<svg width="32" height="32" viewBox="0 0 32 32" fill="none" xmlns="http://www.w3.org/2000/svg">
<path d="M10 17.9999C13.3333 21.3333 18.6667 21.3333 22 17.9999M23.736 23.0557C23.736 23.0557 23.8387 22.9824 24.0027 22.857C26.46 20.957 28 18.2037 28 15.1384C28 9.42371 22.6267 4.78638 16.0027 4.78638C9.376 4.78638 4 9.42371 4 15.1384C4 20.8557 9.37333 25.333 16 25.333C16.5653 25.333 17.4933 25.2957 18.784 25.221C20.4667 26.3144 22.9227 27.2117 25.072 27.2117C25.7373 27.2117 26.0507 26.665 25.624 26.1077C24.976 25.313 24.0827 24.041 23.736 23.0557Z" stroke="white" stroke-width="3" stroke-linecap="round" stroke-linejoin="round"/>
</svg>
