<svg width="115" height="50" viewBox="0 0 115 50" fill="none" xmlns="http://www.w3.org/2000/svg">
<path d="M1 9C1 4.58172 4.58172 1 9 1H106C110.418 1 114 4.58172 114 9V10.1036C114 11.9751 113.344 13.7874 112.146 15.2251L106.134 22.4393C104.898 23.9226 104.898 26.0774 106.134 27.5607L112.146 34.7749C113.344 36.2126 114 38.0249 114 39.8964V41C114 45.4183 110.418 49 106 49H9C4.58173 49 1 45.4183 1 41V39.8964C1 38.0249 1.65613 36.2126 2.85423 34.7749L8.86605 27.5607C10.1022 26.0774 10.1022 23.9226 8.86605 22.4393L2.85423 15.2251C1.65613 13.7874 1 11.9751 1 10.1036V9Z" fill="#4E70E9" stroke="#97A7DB" stroke-linecap="round" stroke-linejoin="round" stroke-dasharray="8 8"/>
</svg>
