<svg width="45" height="45" viewBox="0 0 45 45" fill="none" xmlns="http://www.w3.org/2000/svg">
<path d="M24.6093 5.95637C24.3633 6.2007 24.249 6.78781 24.5478 7.71769C24.8467 8.64846 25.541 9.79103 26.5517 10.8281C27.5625 11.8565 28.6875 12.5772 29.6191 12.8936C30.542 13.2188 31.1308 13.1045 31.3769 12.8672C31.623 12.6211 31.7461 12.0322 31.4472 11.1006C31.1484 10.169 30.4541 9.02639 29.4433 7.99631C28.4238 6.96272 27.2988 6.24377 26.3759 5.92473C25.831 5.79289 25.0576 5.53449 24.6093 5.95637ZM32.4404 5.79465C32.0888 5.79465 31.834 5.88693 31.6933 6.02492C31.4472 6.26926 31.333 6.85549 31.6318 7.78625C31.9306 8.71613 32.625 9.86135 33.6357 10.8897C34.6465 11.9268 35.7715 12.6475 36.7031 12.9639C37.6259 13.2803 38.2148 13.1748 38.4609 12.9287C38.707 12.6914 38.8301 12.1026 38.5312 11.1709C38.2324 10.2393 37.5381 9.0967 36.5273 8.06398C35.5078 7.03039 34.3828 6.31145 33.4599 5.99328C33.0556 5.85354 32.7129 5.79553 32.4404 5.79465ZM22.8867 7.64387L20.1445 10.336C20.6543 11.8653 21.3222 13.21 22.2715 14.2735C23.3965 15.5479 24.8994 16.4619 27.1142 16.8838L27.2461 16.9102L29.6543 14.5547C29.4697 14.5108 29.2851 14.458 29.1006 14.3877C27.8701 13.9658 26.5781 13.1221 25.4179 11.9356C24.2578 10.749 23.4404 9.43947 23.0361 8.20197C22.9746 8.01037 22.9306 7.81174 22.8867 7.64387ZM17.7627 12.6651L7.14548 23.0625C7.64645 24.5127 8.30563 25.7959 9.21091 26.8154C10.3359 28.0899 11.8388 29.0039 14.0537 29.4258L14.4052 29.4873L24.7763 19.3272C21.5244 18.3252 19.2392 15.9346 17.7627 12.6651ZM33.583 13.8779C33.2314 13.8779 32.9765 13.9658 32.8359 14.1065C32.5898 14.3526 32.4756 14.9414 32.7744 15.8643C33.0732 16.7959 33.7676 17.9385 34.7783 18.9756C35.789 20.0127 36.914 20.7246 37.8457 21.0498C38.7685 21.3662 39.3574 21.2608 39.6035 21.0147C39.665 20.9531 39.7177 20.874 39.7617 20.7686C40.9218 21.7617 41.8974 23.0713 41.9853 23.9151C42.0996 24.9434 41.6777 25.8223 40.8603 26.7627C40.0342 27.7031 38.8213 28.626 37.5732 29.5752C36.334 30.5156 35.0683 31.4736 34.1191 32.5986C33.1787 33.7324 32.5459 35.1211 32.8271 36.6768C33.082 38.0479 33.8203 39.4717 35.0332 40.4473C36.2373 41.4317 37.9687 41.9238 39.8759 41.2998L40.6318 41.0537L40.1396 39.5508L39.3838 39.7969C37.9511 40.2627 36.8877 39.9287 36.0263 39.2256C35.165 38.5225 34.5674 37.3887 34.3916 36.3955C34.207 35.376 34.5586 34.541 35.332 33.6182C36.1142 32.6953 37.3008 31.7725 38.5312 30.832C39.7705 29.8916 41.0625 28.9248 42.0468 27.7998C43.0312 26.6836 43.7343 25.3125 43.5586 23.7481C43.3652 21.9551 41.8974 20.4258 40.4297 19.2656C40.0781 18.9844 39.7177 18.7295 39.3662 18.5098C38.997 17.7539 38.4258 16.919 37.6699 16.1455C36.6504 15.1084 35.5254 14.3965 34.6025 14.0713C34.1982 13.9395 33.8554 13.8779 33.583 13.8779ZM31.1133 15.794L28.7138 18.1494L28.7314 18.2813C29.1006 20.5049 29.9883 22.0342 31.2363 23.1856C32.2822 24.1524 33.6181 24.8555 35.1299 25.3916L37.8808 22.7022C37.6963 22.6582 37.5117 22.6055 37.3271 22.544C36.0967 22.1221 34.8047 21.2695 33.6445 20.083C32.4843 18.8965 31.667 17.5869 31.2627 16.3565C31.2011 16.1631 31.1572 15.9785 31.1133 15.794ZM26.2441 20.5664L15.8642 30.7266L15.9258 31.0781C16.2861 33.3018 17.1738 34.8223 18.4306 35.9736C19.4326 36.9053 20.6894 37.5908 22.1396 38.1182L32.6865 27.791C29.4521 26.2266 27.1406 23.8711 26.2441 20.5664ZM4.89372 25.2686C3.87067 26.0596 2.81159 27.2373 1.88347 28.2129C1.63386 28.459 1.5152 29.0479 1.81403 29.9795C2.11374 30.9111 2.80895 32.0537 3.82058 33.082C4.83308 34.1192 5.96159 34.8399 6.88532 35.1563C7.80905 35.4727 8.39792 35.3672 8.64665 35.1211C9.76462 34.0401 10.9072 32.9151 11.8652 31.9746C8.6238 30.9551 6.35886 28.5557 4.89372 25.2686ZM13.2539 33.2842C12.1816 34.2861 11.4785 34.9805 10.1074 36.3692C9.8613 36.6152 9.73825 37.1953 10.0371 38.127C10.3359 39.0586 11.0302 40.2012 12.041 41.2383C13.0605 42.2666 14.1855 42.9873 15.1084 43.3037C16.0312 43.6289 16.6201 43.5235 16.875 43.2774C17.8681 42.3457 18.7734 41.4141 19.7226 40.4824C16.4883 38.918 14.1679 36.5713 13.2539 33.2842Z" fill="#8496E9"/>
</svg>
