<svg width="238" height="48" viewBox="0 0 238 48" fill="none" xmlns="http://www.w3.org/2000/svg">
<path d="M-15.1941 -21.5072C-15.3586 -22.1942 -15.7252 -22.8164 -16.2468 -23.2938C-16.7684 -23.7711 -17.4211 -24.0817 -18.1209 -24.1857L-22.8211 -24.6781C-23.756 -24.7761 -24.6915 -24.4992 -25.4217 -23.9085C-26.1519 -23.3178 -26.6171 -22.4616 -26.7149 -21.5283C-26.8127 -20.5949 -26.5351 -19.6609 -25.9431 -18.9316C-25.3512 -18.2024 -24.4934 -17.7377 -23.5585 -17.6397L-18.8583 -17.1473C-17.9234 -17.0494 -17.0656 -16.5846 -16.4737 -15.8554C-15.8818 -15.1262 -15.6041 -14.1921 -15.7019 -13.2588C-15.7997 -12.3254 -16.2649 -11.4692 -16.9951 -10.8785C-17.7254 -10.2878 -18.6608 -10.011 -19.5957 -10.1089L-24.2959 -10.6013C-24.9957 -10.7053 -25.6484 -11.0159 -26.17 -11.4933C-26.6916 -11.9706 -27.0582 -12.5928 -27.2227 -13.2799M-20.1023 -27.9511L-20.471 -24.4319M-21.9458 -10.3551L-22.3145 -6.83592M27.1072 -17.0753C26.9427 -17.7623 26.576 -18.3845 26.0545 -18.8619C25.5329 -19.3393 24.8802 -19.6499 24.1804 -19.7538L19.4802 -20.2463C18.5453 -20.3442 17.6098 -20.0674 16.8796 -19.4767C16.1494 -18.886 15.6842 -18.0297 15.5864 -17.0964C15.4886 -16.163 15.7662 -15.229 16.3582 -14.4998C16.9501 -13.7705 17.8079 -13.3058 18.7428 -13.2079L23.443 -12.7154C24.3779 -12.6175 25.2357 -12.1528 25.8276 -11.4235C26.4195 -10.6943 26.6971 -9.76027 26.5994 -8.82692C26.5016 -7.89357 26.0364 -7.03736 25.3062 -6.44664C24.5759 -5.85593 23.6405 -5.5791 22.7056 -5.67705L18.0054 -6.16947C17.3056 -6.27342 16.6529 -6.58407 16.1313 -7.06142C15.6097 -7.53877 15.2431 -8.16099 15.0786 -8.848M22.199 -23.5193L21.8303 -20.0001M20.3555 -5.92326L19.9868 -2.40406M69.4084 -12.6435C69.244 -13.3305 68.8773 -13.9527 68.3557 -14.43C67.8341 -14.9074 67.1815 -15.218 66.4817 -15.322L61.7815 -15.8144C60.8466 -15.9124 59.9111 -15.6355 59.1809 -15.0448C58.4507 -14.4541 57.9855 -13.5979 57.8877 -12.6645C57.7899 -11.7312 58.0675 -10.7972 58.6595 -10.0679C59.2514 -9.33868 60.1092 -8.87397 61.0441 -8.77602L65.7443 -8.28359C66.6792 -8.18564 67.5369 -7.72093 68.1289 -6.99169C68.7208 -6.26245 68.9984 -5.32842 68.9007 -4.39507C68.8029 -3.46172 68.3377 -2.60551 67.6075 -2.01479C66.8772 -1.42407 65.9418 -1.14724 65.0068 -1.24519L60.3067 -1.73762C59.6069 -1.84157 58.9542 -2.15221 58.4326 -2.62956C57.911 -3.10691 57.5444 -3.72913 57.3799 -4.41614M64.5003 -19.0874L64.1316 -15.5682M62.6568 -1.4914L62.2881 2.0278M111.71 -8.21161C111.545 -8.89862 111.179 -9.52084 110.657 -9.99819C110.135 -10.4755 109.483 -10.7862 108.783 -10.8901L104.083 -11.3826C103.148 -11.4805 102.212 -11.2037 101.482 -10.613C100.752 -10.0222 100.287 -9.16603 100.189 -8.23268C100.091 -7.29933 100.369 -6.3653 100.961 -5.63606C101.553 -4.90682 102.41 -4.44211 103.345 -4.34416L108.046 -3.85173C108.98 -3.75378 109.838 -3.28907 110.43 -2.55984C111.022 -1.8306 111.3 -0.896564 111.202 0.0367863C111.104 0.970136 110.639 1.82635 109.909 2.41707C109.179 3.00778 108.243 3.28462 107.308 3.18667L102.608 2.69424C101.908 2.59029 101.256 2.27965 100.734 1.80229C100.212 1.32494 99.8457 0.702722 99.6812 0.0157147M106.802 -14.6555L106.433 -11.1363M104.958 2.94045L104.589 6.45965M154.011 -3.77976C153.847 -4.46676 153.48 -5.08898 152.958 -5.56633C152.437 -6.04369 151.784 -6.35433 151.084 -6.45828L146.384 -6.95071C145.449 -7.04866 144.514 -6.77182 143.783 -6.18111C143.053 -5.59039 142.588 -4.73418 142.49 -3.80083C142.392 -2.86748 142.67 -1.93345 143.262 -1.20421C143.854 -0.474967 144.712 -0.0102575 145.647 0.0876926L150.347 0.58012C151.282 0.678071 152.14 1.14278 152.731 1.87202C153.323 2.60126 153.601 3.53529 153.503 4.46864C153.405 5.40199 152.94 6.2582 152.21 6.84892C151.48 7.43964 150.544 7.71647 149.609 7.61852L144.909 7.12609C144.209 7.02214 143.557 6.7115 143.035 6.23415C142.514 5.7568 142.147 5.13458 141.982 4.44757M149.103 -10.2237L148.734 -6.70449M147.259 7.37231L146.891 10.8915M196.312 0.652099C196.148 -0.0349084 195.781 -0.657128 195.26 -1.13448C194.738 -1.61183 194.085 -1.92247 193.386 -2.02642L188.685 -2.51885C187.75 -2.6168 186.815 -2.33997 186.085 -1.74925C185.355 -1.15853 184.889 -0.302323 184.792 0.631027C184.694 1.56438 184.971 2.49841 185.563 3.22765C186.155 3.95689 187.013 4.4216 187.948 4.51955L192.648 5.01198C193.583 5.10993 194.441 5.57464 195.033 6.30388C195.625 7.03311 195.902 7.96715 195.805 8.9005C195.707 9.83385 195.242 10.6901 194.511 11.2808C193.781 11.8715 192.846 12.1483 191.911 12.0504L187.211 11.5579C186.511 11.454 185.858 11.1434 185.336 10.666C184.815 10.1887 184.448 9.56643 184.284 8.87943M191.404 -5.79184L191.035 -2.27264M189.561 11.8042L189.192 15.3234M238.614 5.08395C238.449 4.39695 238.083 3.77473 237.561 3.29738C237.039 2.82002 236.387 2.50938 235.687 2.40543L230.987 1.913C230.052 1.81505 229.116 2.09189 228.386 2.6826C227.656 3.27332 227.191 4.12953 227.093 5.06288C226.995 5.99623 227.273 6.93027 227.865 7.6595C228.457 8.38874 229.314 8.85345 230.249 8.9514L234.949 9.44383C235.884 9.54178 236.742 10.0065 237.334 10.7357C237.926 11.465 238.204 12.399 238.106 13.3324C238.008 14.2657 237.543 15.1219 236.813 15.7126C236.082 16.3034 235.147 16.5802 234.212 16.4822L229.512 15.9898C228.812 15.8859 228.159 15.5752 227.638 15.0979C227.116 14.6205 226.75 13.9983 226.585 13.3113M233.705 -1.35998L233.337 2.15922M231.862 16.236L231.493 19.7552M277.39 9.14649C277.225 8.45948 276.859 7.83726 276.337 7.35991C275.815 6.88256 275.163 6.57192 274.463 6.46797L269.763 5.97554C268.828 5.87759 267.892 6.15442 267.162 6.74514C266.432 7.33585 265.967 8.19207 265.869 9.12542C265.771 10.0588 266.049 10.9928 266.641 11.722C267.233 12.4513 268.091 12.916 269.025 13.0139L273.726 13.5064C274.661 13.6043 275.518 14.069 276.11 14.7983C276.702 15.5275 276.98 16.4615 276.882 17.3949C276.784 18.3282 276.319 19.1845 275.589 19.7752C274.859 20.3659 273.923 20.6427 272.988 20.5448L268.288 20.0523C267.588 19.9484 266.936 19.6377 266.414 19.1604C265.892 18.683 265.526 18.0608 265.361 17.3738M272.482 2.70255L272.113 6.22175M270.638 20.2986L270.269 23.8178M-19.2499 17.204C-19.4143 16.517 -19.781 15.8948 -20.3026 15.4174C-20.8242 14.9401 -21.4769 14.6295 -22.1767 14.5255L-26.8768 14.0331C-27.8117 13.9351 -28.7472 14.212 -29.4774 14.8027C-30.2076 15.3934 -30.6728 16.2496 -30.7706 17.1829C-30.8684 18.1163 -30.5908 19.0503 -29.9988 19.7796C-29.4069 20.5088 -28.5491 20.9735 -27.6142 21.0715L-22.9141 21.5639C-21.9791 21.6618 -21.1214 22.1266 -20.5294 22.8558C-19.9375 23.585 -19.6599 24.5191 -19.7577 25.4524C-19.8554 26.3858 -20.3206 27.242 -21.0508 27.8327C-21.7811 28.4234 -22.7165 28.7002 -23.6515 28.6023L-28.3516 28.1099C-29.0514 28.0059 -29.7041 27.6953 -30.2257 27.2179C-30.7473 26.7406 -31.1139 26.1184 -31.2784 25.4313M-24.158 10.7601L-24.5267 14.2793M-26.0015 28.3561L-26.3702 31.8753M23.0514 21.6359C22.887 20.9489 22.5203 20.3267 21.9987 19.8493C21.4771 19.3719 20.8244 19.0613 20.1246 18.9574L15.4245 18.4649C14.4896 18.367 13.5541 18.6438 12.8239 19.2345C12.0936 19.8252 11.6285 20.6815 11.5307 21.6148C11.4329 22.5482 11.7105 23.4822 12.3025 24.2114C12.8944 24.9407 13.7522 25.4054 14.6871 25.5033L19.3872 25.9958C20.3221 26.0937 21.1799 26.5584 21.7719 27.2877C22.3638 28.0169 22.6414 28.9509 22.5436 29.8843C22.4458 30.8176 21.9807 31.6738 21.2504 32.2646C20.5202 32.8553 19.5847 33.1321 18.6498 33.0342L13.9497 32.5417C13.2499 32.4378 12.5972 32.1271 12.0756 31.6498C11.554 31.1724 11.1874 30.5502 11.0229 29.8632M18.1433 15.1919L17.7746 18.7111M16.2998 32.7879L15.9311 36.3071M65.3527 26.0677C65.1882 25.3807 64.8216 24.7585 64.3 24.2812C63.7784 23.8038 63.1257 23.4932 62.4259 23.3892L57.7258 22.8968C56.7909 22.7988 55.8554 23.0757 55.1252 23.6664C54.3949 24.2571 53.9298 25.1133 53.832 26.0467C53.7342 26.98 54.0118 27.914 54.6037 28.6433C55.1957 29.3725 56.0535 29.8372 56.9884 29.9352L61.6885 30.4276C62.6234 30.5256 63.4812 30.9903 64.0732 31.7195C64.6651 32.4487 64.9427 33.3828 64.8449 34.3161C64.7471 35.2495 64.282 36.1057 63.5517 36.6964C62.8215 37.2871 61.886 37.564 60.9511 37.466L56.251 36.9736C55.5512 36.8696 54.8985 36.559 54.3769 36.0816C53.8553 35.6043 53.4887 34.9821 53.3242 34.2951M60.4446 19.6238L60.0759 23.143M58.601 37.2198L58.2323 40.739M107.654 30.4996C107.49 29.8126 107.123 29.1904 106.601 28.713C106.08 28.2357 105.427 27.925 104.727 27.8211L100.027 27.3286C99.0922 27.2307 98.1567 27.5075 97.4265 28.0982C96.6962 28.689 96.2311 29.5452 96.1333 30.4785C96.0355 31.4119 96.3131 32.3459 96.905 33.0751C97.497 33.8044 98.3548 34.2691 99.2897 34.367L103.99 34.8595C104.925 34.9574 105.783 35.4221 106.374 36.1514C106.966 36.8806 107.244 37.8146 107.146 38.748C107.048 39.6813 106.583 40.5375 105.853 41.1283C105.123 41.719 104.187 41.9958 103.252 41.8979L98.5523 41.4054C97.8525 41.3015 97.1998 40.9908 96.6782 40.5135C96.1566 40.0361 95.7899 39.4139 95.6255 38.7269M102.746 24.0557L102.377 27.5749M100.902 41.6517L100.534 45.1709M149.955 34.9314C149.791 34.2444 149.424 33.6222 148.903 33.1449C148.381 32.6675 147.728 32.3569 147.029 32.2529L142.328 31.7605C141.393 31.6625 140.458 31.9394 139.728 32.5301C138.998 33.1208 138.532 33.977 138.435 34.9104C138.337 35.8437 138.614 36.7778 139.206 37.507C139.798 38.2362 140.656 38.7009 141.591 38.7989L146.291 39.2913C147.226 39.3893 148.084 39.854 148.676 40.5832C149.268 41.3125 149.545 42.2465 149.448 43.1798C149.35 44.1132 148.885 44.9694 148.154 45.5601C147.424 46.1508 146.489 46.4277 145.554 46.3297L140.854 45.8373C140.154 45.7333 139.501 45.4227 138.979 44.9453C138.458 44.468 138.091 43.8458 137.927 43.1588M145.047 28.4875L144.678 32.0067M143.204 46.0835L142.835 49.6027M192.257 39.3633C192.092 38.6763 191.725 38.0541 191.204 37.5767C190.682 37.0994 190.03 36.7887 189.33 36.6848L184.63 36.1923C183.695 36.0944 182.759 36.3712 182.029 36.9619C181.299 37.5527 180.834 38.4089 180.736 39.3422C180.638 40.2756 180.916 41.2096 181.508 41.9388C182.1 42.6681 182.957 43.1328 183.892 43.2307L188.592 43.7232C189.527 43.8211 190.385 44.2858 190.977 45.0151C191.569 45.7443 191.847 46.6783 191.749 47.6117C191.651 48.545 191.186 49.4013 190.456 49.992C189.725 50.5827 188.79 50.8595 187.855 50.7616L183.155 50.2691C182.455 50.1652 181.802 49.8546 181.281 49.3772C180.759 48.8999 180.393 48.2776 180.228 47.5906M187.348 32.9194L186.98 36.4386M185.505 50.5154L185.136 54.0346M234.558 43.7952C234.393 43.1081 234.027 42.4859 233.505 42.0086C232.984 41.5312 232.331 41.2206 231.631 41.1166L226.931 40.6242C225.996 40.5263 225.061 40.8031 224.33 41.3938C223.6 41.9845 223.135 42.8407 223.037 43.7741C222.939 44.7074 223.217 45.6415 223.809 46.3707C224.401 47.0999 225.259 47.5647 226.194 47.6626L230.894 48.155C231.829 48.253 232.686 48.7177 233.278 49.4469C233.87 50.1762 234.148 51.1102 234.05 52.0436C233.952 52.9769 233.487 53.8331 232.757 54.4238C232.027 55.0145 231.091 55.2914 230.156 55.1934L225.456 54.701C224.756 54.5971 224.104 54.2864 223.582 53.8091C223.06 53.3317 222.694 52.7095 222.529 52.0225M229.65 37.3512L229.281 40.8704M227.806 54.9472L227.438 58.4664M273.334 47.8577C273.17 47.1707 272.803 46.5485 272.281 46.0711C271.76 45.5938 271.107 45.2831 270.407 45.1792L265.707 44.6867C264.772 44.5888 263.837 44.8656 263.107 45.4563C262.376 46.0471 261.911 46.9033 261.813 47.8366C261.716 48.77 261.993 49.704 262.585 50.4332C263.177 51.1625 264.035 51.6272 264.97 51.7251L269.67 52.2176C270.605 52.3155 271.463 52.7802 272.055 53.5095C272.646 54.2387 272.924 55.1727 272.826 56.1061C272.729 57.0394 272.263 57.8956 271.533 58.4864C270.803 59.0771 269.867 59.3539 268.932 59.256L264.232 58.7635C263.533 58.6596 262.88 58.3489 262.358 57.8716C261.837 57.3942 261.47 56.772 261.306 56.085M268.426 41.4138L268.057 44.933M266.582 59.0098L266.214 62.529M-23.3056 55.9152C-23.4701 55.2282 -23.8367 54.606 -24.3583 54.1286C-24.8799 53.6513 -25.5326 53.3407 -26.2324 53.2367L-30.9325 52.7443C-31.8674 52.6463 -32.8029 52.9232 -33.5331 53.5139C-34.2634 54.1046 -34.7285 54.9608 -34.8263 55.8941C-34.9241 56.8275 -34.6465 57.7615 -34.0546 58.4908C-33.4626 59.22 -32.6048 59.6847 -31.6699 59.7827L-26.9698 60.2751C-26.0349 60.373 -25.1771 60.8378 -24.5851 61.567C-23.9932 62.2962 -23.7156 63.2303 -23.8134 64.1636C-23.9112 65.097 -24.3763 65.9532 -25.1066 66.5439C-25.8368 67.1346 -26.7723 67.4114 -27.7072 67.3135L-32.4073 66.8211C-33.1071 66.7171 -33.7598 66.4065 -34.2814 65.9291C-34.803 65.4518 -35.1697 64.8296 -35.3341 64.1426M-28.2138 49.4713L-28.5825 52.9905M-30.0573 67.0673L-30.426 70.5865M18.9957 60.3471C18.8312 59.6601 18.4646 59.0379 17.943 58.5605C17.4214 58.0831 16.7687 57.7725 16.0689 57.6686L11.3688 57.1761C10.4339 57.0782 9.49838 57.355 8.76815 57.9457C8.03792 58.5364 7.57274 59.3927 7.47496 60.326C7.37717 61.2594 7.65478 62.1934 8.24673 62.9226C8.83867 63.6519 9.69645 64.1166 10.6314 64.2145L15.3315 64.707C16.2664 64.8049 17.1242 65.2696 17.7161 65.9989C18.3081 66.7281 18.5857 67.6621 18.4879 68.5955C18.3901 69.5288 17.9249 70.385 17.1947 70.9758C16.4645 71.5665 15.529 71.8433 14.5941 71.7454L9.89396 71.2529C9.19416 71.149 8.54147 70.8383 8.01987 70.361C7.49827 69.8836 7.13164 69.2614 6.96716 68.5744M14.0875 53.9031L13.7188 57.4223M12.244 71.4991L11.8753 75.0183M61.297 64.7789C61.1325 64.0919 60.7659 63.4697 60.2443 62.9924C59.7227 62.515 59.07 62.2044 58.3702 62.1004L53.6701 61.608C52.7351 61.51 51.7997 61.7869 51.0694 62.3776C50.3392 62.9683 49.874 63.8245 49.7762 64.7579C49.6785 65.6912 49.9561 66.6252 50.548 67.3545C51.14 68.0837 51.9977 68.5484 52.9327 68.6464L57.6328 69.1388C58.5677 69.2368 59.4255 69.7015 60.0174 70.4307C60.6094 71.1599 60.887 72.094 60.7892 73.0273C60.6914 73.9607 60.2262 74.8169 59.496 75.4076C58.7658 75.9983 57.8303 76.2752 56.8954 76.1772L52.1952 75.6848C51.4955 75.5808 50.8428 75.2702 50.3212 74.7928C49.7996 74.3155 49.4329 73.6933 49.2685 73.0063M56.3888 58.335L56.0201 61.8542M54.5453 75.931L54.1766 79.4502M103.598 69.2108C103.434 68.5238 103.067 67.9016 102.546 67.4242C102.024 66.9469 101.371 66.6362 100.671 66.5323L95.9713 66.0398C95.0364 65.9419 94.101 66.2187 93.3707 66.8094C92.6405 67.4002 92.1753 68.2564 92.0775 69.1897C91.9798 70.1231 92.2574 71.0571 92.8493 71.7863C93.4412 72.5156 94.299 72.9803 95.2339 73.0782L99.9341 73.5707C100.869 73.6686 101.727 74.1333 102.319 74.8626C102.911 75.5918 103.188 76.5258 103.09 77.4592C102.993 78.3925 102.528 79.2488 101.797 79.8395C101.067 80.4302 100.132 80.707 99.1967 80.6091L94.4965 80.1166C93.7967 80.0127 93.144 79.702 92.6225 79.2247C92.1009 78.7473 91.7342 78.1251 91.5697 77.4381M98.6901 62.7669L98.3214 66.2861M96.8466 80.3629L96.4779 83.8821M145.9 73.6426C145.735 72.9556 145.368 72.3334 144.847 71.8561C144.325 71.3787 143.673 71.0681 142.973 70.9641L138.273 70.4717C137.338 70.3737 136.402 70.6506 135.672 71.2413C134.942 71.832 134.477 72.6882 134.379 73.6216C134.281 74.5549 134.559 75.489 135.151 76.2182C135.743 76.9474 136.6 77.4121 137.535 77.5101L142.235 78.0025C143.17 78.1005 144.028 78.5652 144.62 79.2944C145.212 80.0237 145.49 80.9577 145.392 81.891C145.294 82.8244 144.829 83.6806 144.099 84.2713C143.368 84.862 142.433 85.1389 141.498 85.0409L136.798 84.5485C136.098 84.4445 135.445 84.1339 134.924 83.6565C134.402 83.1792 134.036 82.557 133.871 81.87M140.991 67.1987L140.623 70.7179M139.148 84.7947L138.779 88.3139M188.201 78.0745C188.036 77.3875 187.67 76.7653 187.148 76.2879C186.627 75.8106 185.974 75.4999 185.274 75.396L180.574 74.9035C179.639 74.8056 178.704 75.0824 177.973 75.6731C177.243 76.2639 176.778 77.1201 176.68 78.0534C176.582 78.9868 176.86 79.9208 177.452 80.6501C178.044 81.3793 178.902 81.844 179.837 81.9419L184.537 82.4344C185.472 82.5323 186.329 82.997 186.921 83.7263C187.513 84.4555 187.791 85.3895 187.693 86.3229C187.595 87.2562 187.13 88.1125 186.4 88.7032C185.67 89.2939 184.734 89.5707 183.799 89.4728L179.099 88.9803C178.399 88.8764 177.747 88.5658 177.225 88.0884C176.703 87.611 176.337 86.9888 176.172 86.3018M183.293 71.6306L182.924 75.1498M181.449 89.2266L181.08 92.7458M230.502 82.5064C230.338 81.8193 229.971 81.1971 229.449 80.7198C228.928 80.2424 228.275 79.9318 227.575 79.8278L222.875 79.3354C221.94 79.2375 221.005 79.5143 220.275 80.105C219.544 80.6957 219.079 81.5519 218.981 82.4853C218.884 83.4186 219.161 84.3527 219.753 85.0819C220.345 85.8111 221.203 86.2759 222.138 86.3738L226.838 86.8662C227.773 86.9642 228.631 87.4289 229.223 88.1581C229.815 88.8874 230.092 89.8214 229.994 90.7548C229.897 91.6881 229.431 92.5443 228.701 93.135C227.971 93.7258 227.035 94.0026 226.101 93.9046L221.4 93.4122C220.701 93.3083 220.048 92.9976 219.526 92.5203C219.005 92.0429 218.638 91.4207 218.474 90.7337M225.594 76.0624L225.225 79.5816M223.75 93.6584L223.382 97.1776M269.278 86.5689C269.114 85.8819 268.747 85.2597 268.226 84.7823C267.704 84.305 267.051 83.9943 266.352 83.8904L261.651 83.3979C260.716 83.3 259.781 83.5768 259.051 84.1675C258.321 84.7583 257.855 85.6145 257.758 86.5478C257.66 87.4812 257.937 88.4152 258.529 89.1444C259.121 89.8737 259.979 90.3384 260.914 90.4363L265.614 90.9288C266.549 91.0267 267.407 91.4914 267.999 92.2207C268.591 92.9499 268.868 93.8839 268.771 94.8173C268.673 95.7506 268.208 96.6069 267.477 97.1976C266.747 97.7883 265.812 98.0651 264.877 97.9672L260.177 97.4747C259.477 97.3708 258.824 97.0601 258.302 96.5828C257.781 96.1054 257.414 95.4832 257.25 94.7962M264.37 80.125L264.001 83.6442M262.527 97.721L262.158 101.24M-27.3613 94.6264C-27.5258 93.9394 -27.8924 93.3172 -28.414 92.8398C-28.9356 92.3625 -29.5883 92.0519 -30.2881 91.9479L-34.9883 91.4555C-35.9232 91.3575 -36.8586 91.6344 -37.5889 92.2251C-38.3191 92.8158 -38.7843 93.672 -38.8821 94.6053C-38.9798 95.5387 -38.7022 96.4727 -38.1103 97.202C-37.5184 97.9312 -36.6606 98.3959 -35.7257 98.4939L-31.0255 98.9863C-30.0906 99.0842 -29.2328 99.549 -28.6409 100.278C-28.0489 101.007 -27.7713 101.941 -27.8691 102.875C-27.9669 103.808 -28.4321 104.664 -29.1623 105.255C-29.8925 105.846 -30.828 106.123 -31.7629 106.025L-36.4631 105.532C-37.1629 105.428 -37.8156 105.118 -38.3372 104.64C-38.8587 104.163 -39.2254 103.541 -39.3899 102.854M-32.2695 88.1825L-32.6382 91.7017M-34.113 105.778L-34.4817 109.298M14.94 99.0583C14.7755 98.3713 14.4089 97.749 13.8873 97.2717C13.3657 96.7943 12.713 96.4837 12.0132 96.3798L7.31304 95.8873C6.37812 95.7894 5.44266 96.0662 4.71242 96.6569C3.98219 97.2476 3.51702 98.1039 3.41923 99.0372C3.32145 99.9706 3.59906 100.905 4.191 101.634C4.78294 102.363 5.64072 102.828 6.57564 102.926L11.2758 103.418C12.2107 103.516 13.0685 103.981 13.6604 104.71C14.2524 105.439 14.53 106.373 14.4322 107.307C14.3344 108.24 13.8692 109.096 13.139 109.687C12.4088 110.278 11.4733 110.555 10.5384 110.457L5.83823 109.964C5.13844 109.86 4.48574 109.55 3.96414 109.072C3.44254 108.595 3.07592 107.973 2.91144 107.286M10.0318 92.6143L9.66311 96.1335M8.1883 110.21L7.8196 113.73M57.2413 103.49C57.0768 102.803 56.7102 102.181 56.1886 101.704C55.667 101.226 55.0143 100.916 54.3145 100.812L49.6143 100.319C48.6794 100.221 47.7439 100.498 47.0137 101.089C46.2835 101.679 45.8183 102.536 45.7205 103.469C45.6227 104.402 45.9003 105.336 46.4923 106.066C47.0842 106.795 47.942 107.26 48.8769 107.358L53.5771 107.85C54.512 107.948 55.3698 108.413 55.9617 109.142C56.5536 109.871 56.8313 110.805 56.7335 111.739C56.6357 112.672 56.1705 113.528 55.4403 114.119C54.7101 114.71 53.7746 114.986 52.8397 114.888L48.1395 114.396C47.4397 114.292 46.787 113.981 46.2654 113.504C45.7438 113.027 45.3772 112.404 45.2127 111.717M52.3331 97.0462L51.9644 100.565M50.4896 114.642L50.1209 118.161M99.5426 107.922C99.3781 107.235 99.0115 106.613 98.4899 106.135C97.9683 105.658 97.3156 105.347 96.6158 105.243L91.9156 104.751C90.9807 104.653 90.0452 104.93 89.315 105.521C88.5848 106.111 88.1196 106.968 88.0218 107.901C87.924 108.834 88.2016 109.768 88.7936 110.498C89.3855 111.227 90.2433 111.691 91.1782 111.789L95.8784 112.282C96.8133 112.38 97.6711 112.845 98.263 113.574C98.8549 114.303 99.1325 115.237 99.0348 116.17C98.937 117.104 98.4718 117.96 97.7416 118.551C97.0113 119.141 96.0759 119.418 95.141 119.32L90.4408 118.828C89.741 118.724 89.0883 118.413 88.5667 117.936C88.0451 117.459 87.6785 116.836 87.514 116.149M94.6344 101.478L94.2657 104.997M92.7909 119.074L92.4222 122.593M141.844 112.354C141.679 111.667 141.313 111.045 140.791 110.567C140.27 110.09 139.617 109.779 138.917 109.675L134.217 109.183C133.282 109.085 132.347 109.362 131.616 109.952C130.886 110.543 130.421 111.399 130.323 112.333C130.225 113.266 130.503 114.2 131.095 114.929C131.687 115.659 132.545 116.123 133.48 116.221L138.18 116.714C139.115 116.812 139.972 117.276 140.564 118.006C141.156 118.735 141.434 119.669 141.336 120.602C141.238 121.536 140.773 122.392 140.043 122.983C139.313 123.573 138.377 123.85 137.442 123.752L132.742 123.26C132.042 123.156 131.39 122.845 130.868 122.368C130.346 121.89 129.98 121.268 129.815 120.581M136.936 105.91L136.567 109.429M135.092 123.506L134.723 127.025M184.145 116.786C183.981 116.099 183.614 115.476 183.092 114.999C182.571 114.522 181.918 114.211 181.218 114.107L176.518 113.615C175.583 113.517 174.648 113.794 173.918 114.384C173.187 114.975 172.722 115.831 172.624 116.765C172.527 117.698 172.804 118.632 173.396 119.361C173.988 120.09 174.846 120.555 175.781 120.653L180.481 121.146C181.416 121.244 182.274 121.708 182.866 122.437C183.458 123.167 183.735 124.101 183.637 125.034C183.54 125.967 183.074 126.824 182.344 127.414C181.614 128.005 180.678 128.282 179.744 128.184L175.043 127.692C174.344 127.588 173.691 127.277 173.169 126.8C172.648 126.322 172.281 125.7 172.117 125.013M179.237 110.342L178.868 113.861M177.393 127.938L177.025 131.457M226.446 121.218C226.282 120.531 225.915 119.908 225.394 119.431C224.872 118.954 224.219 118.643 223.52 118.539L218.819 118.047C217.885 117.949 216.949 118.225 216.219 118.816C215.489 119.407 215.023 120.263 214.926 121.196C214.828 122.13 215.106 123.064 215.697 123.793C216.289 124.522 217.147 124.987 218.082 125.085L222.782 125.577C223.717 125.675 224.575 126.14 225.167 126.869C225.759 127.599 226.036 128.533 225.939 129.466C225.841 130.399 225.376 131.256 224.645 131.846C223.915 132.437 222.98 132.714 222.045 132.616L217.345 132.123C216.645 132.019 215.992 131.709 215.471 131.231C214.949 130.754 214.582 130.132 214.418 129.445M221.538 114.774L221.17 118.293M219.695 132.37L219.326 135.889M265.223 125.28C265.058 124.593 264.692 123.971 264.17 123.494C263.648 123.016 262.996 122.706 262.296 122.602L257.596 122.109C256.661 122.011 255.725 122.288 254.995 122.879C254.265 123.469 253.8 124.326 253.702 125.259C253.604 126.192 253.882 127.126 254.474 127.856C255.066 128.585 255.923 129.05 256.858 129.148L261.558 129.64C262.493 129.738 263.351 130.203 263.943 130.932C264.535 131.661 264.813 132.595 264.715 133.528C264.617 134.462 264.152 135.318 263.422 135.909C262.691 136.499 261.756 136.776 260.821 136.678L256.121 136.186C255.421 136.082 254.768 135.771 254.247 135.294C253.725 134.817 253.359 134.194 253.194 133.507M260.314 118.836L259.946 122.355M258.471 136.432L258.102 139.951" stroke="#5B450E" stroke-width="2" stroke-linecap="round" stroke-linejoin="round"/>
</svg>
