<svg width="18" height="18" viewBox="0 0 18 18" fill="none" xmlns="http://www.w3.org/2000/svg">
<path d="M5.5 5C5.77614 5 6 4.77614 6 4.5C6 4.22386 5.77614 4 5.5 4C5.22386 4 5 4.22386 5 4.5C5 4.77614 5.22386 5 5.5 5Z" fill="#4E70E9"/>
<path d="M12.5 5C12.7761 5 13 4.77614 13 4.5C13 4.22386 12.7761 4 12.5 4C12.2239 4 12 4.22386 12 4.5C12 4.77614 12.2239 5 12.5 5Z" fill="#4E70E9"/>
<path d="M5.5 9.5C5.77614 9.5 6 9.27614 6 9C6 8.72386 5.77614 8.5 5.5 8.5C5.22386 8.5 5 8.72386 5 9C5 9.27614 5.22386 9.5 5.5 9.5Z" fill="#4E70E9"/>
<path d="M12.5 9.5C12.7761 9.5 13 9.27614 13 9C13 8.72386 12.7761 8.5 12.5 8.5C12.2239 8.5 12 8.72386 12 9C12 9.27614 12.2239 9.5 12.5 9.5Z" fill="#4E70E9"/>
<path d="M12.5 14C12.7761 14 13 13.7761 13 13.5C13 13.2239 12.7761 13 12.5 13C12.2239 13 12 13.2239 12 13.5C12 13.7761 12.2239 14 12.5 14Z" fill="#4E70E9"/>
<path d="M5.5 14C5.77614 14 6 13.7761 6 13.5C6 13.2239 5.77614 13 5.5 13C5.22386 13 5 13.2239 5 13.5C5 13.7761 5.22386 14 5.5 14Z" fill="#4E70E9"/>
<path d="M3 2H15V0H3V2ZM15 2C15.5523 2 16 2.44772 16 3H18C18 1.34315 16.6569 0 15 0V2ZM16 3V15H18V3H16ZM16 15C16 15.5523 15.5523 16 15 16V18C16.6569 18 18 16.6569 18 15H16ZM15 16H3V18H15V16ZM3 16C2.44772 16 2 15.5523 2 15H0C0 16.6569 1.34315 18 3 18V16ZM2 15V3H0V15H2ZM2 3C2 2.44772 2.44772 2 3 2V0C1.34315 0 0 1.34315 0 3H2ZM5 4.5C5 4.22386 5.22386 4 5.5 4V6C6.32843 6 7 5.32843 7 4.5H5ZM5.5 4C5.77614 4 6 4.22386 6 4.5H4C4 5.32843 4.67157 6 5.5 6V4ZM6 4.5C6 4.77614 5.77614 5 5.5 5V3C4.67157 3 4 3.67157 4 4.5H6ZM5.5 5C5.22386 5 5 4.77614 5 4.5H7C7 3.67157 6.32843 3 5.5 3V5ZM12 4.5C12 4.22386 12.2239 4 12.5 4V6C13.3284 6 14 5.32843 14 4.5H12ZM12.5 4C12.7761 4 13 4.22386 13 4.5H11C11 5.32843 11.6716 6 12.5 6V4ZM13 4.5C13 4.77614 12.7761 5 12.5 5V3C11.6716 3 11 3.67157 11 4.5H13ZM12.5 5C12.2239 5 12 4.77614 12 4.5H14C14 3.67157 13.3284 3 12.5 3V5ZM5 9C5 8.72386 5.22386 8.5 5.5 8.5V10.5C6.32843 10.5 7 9.82843 7 9H5ZM5.5 8.5C5.77614 8.5 6 8.72386 6 9H4C4 9.82843 4.67157 10.5 5.5 10.5V8.5ZM6 9C6 9.27614 5.77614 9.5 5.5 9.5V7.5C4.67157 7.5 4 8.17157 4 9H6ZM5.5 9.5C5.22386 9.5 5 9.27614 5 9H7C7 8.17157 6.32843 7.5 5.5 7.5V9.5ZM12 9C12 8.72386 12.2239 8.5 12.5 8.5V10.5C13.3284 10.5 14 9.82843 14 9H12ZM12.5 8.5C12.7761 8.5 13 8.72386 13 9H11C11 9.82843 11.6716 10.5 12.5 10.5V8.5ZM13 9C13 9.27614 12.7761 9.5 12.5 9.5V7.5C11.6716 7.5 11 8.17157 11 9H13ZM12.5 9.5C12.2239 9.5 12 9.27614 12 9H14C14 8.17157 13.3284 7.5 12.5 7.5V9.5ZM12 13.5C12 13.2239 12.2239 13 12.5 13V15C13.3284 15 14 14.3284 14 13.5H12ZM12.5 13C12.7761 13 13 13.2239 13 13.5H11C11 14.3284 11.6716 15 12.5 15V13ZM13 13.5C13 13.7761 12.7761 14 12.5 14V12C11.6716 12 11 12.6716 11 13.5H13ZM12.5 14C12.2239 14 12 13.7761 12 13.5H14C14 12.6716 13.3284 12 12.5 12V14ZM5 13.5C5 13.2239 5.22386 13 5.5 13V15C6.32843 15 7 14.3284 7 13.5H5ZM5.5 13C5.77614 13 6 13.2239 6 13.5H4C4 14.3284 4.67157 15 5.5 15V13ZM6 13.5C6 13.7761 5.77614 14 5.5 14V12C4.67157 12 4 12.6716 4 13.5H6ZM5.5 14C5.22386 14 5 13.7761 5 13.5H7C7 12.6716 6.32843 12 5.5 12V14Z" fill="#4E70E9"/>
</svg>
