<svg width="20" height="20" viewBox="0 0 20 20" fill="none" xmlns="http://www.w3.org/2000/svg">
<path d="M10 6V19M10 6C9.63828 4.5094 9.01545 3.23507 8.21274 2.34317C7.41003 1.45127 6.46469 0.983203 5.5 1.00001C4.83696 1.00001 4.20107 1.2634 3.73223 1.73224C3.26339 2.20108 3 2.83697 3 3.50001C3 4.16305 3.26339 4.79894 3.73223 5.26778C4.20107 5.73662 4.83696 6.00001 5.5 6.00001M10 6C10.3617 4.5094 10.9846 3.23507 11.7873 2.34317C12.59 1.45127 13.5353 0.983203 14.5 1.00001C15.163 1.00001 15.7989 1.2634 16.2678 1.73224C16.7366 2.20108 17 2.83697 17 3.50001C17 4.16305 16.7366 4.79894 16.2678 5.26778C15.7989 5.73662 15.163 6.00001 14.5 6.00001M17 10V17C17 17.5304 16.7893 18.0391 16.4142 18.4142C16.0391 18.7893 15.5304 19 15 19H5C4.46957 19 3.96086 18.7893 3.58579 18.4142C3.21071 18.0391 3 17.5304 3 17V10M2 6H18C18.5523 6 19 6.44772 19 7V9C19 9.55228 18.5523 10 18 10H2C1.44772 10 1 9.55228 1 9V7C1 6.44772 1.44772 6 2 6Z" stroke="#576CB0" stroke-width="2" stroke-linecap="round" stroke-linejoin="round"/>
</svg>
