<svg width="31" height="20" viewBox="0 0 31 20" fill="none" xmlns="http://www.w3.org/2000/svg">
<path d="M22.5805 9.51315C22.6821 9.58381 22.7966 9.67403 22.8329 9.71613C22.9013 9.79184 22.9529 9.96988 22.9214 10.0243C22.8964 10.0675 22.7911 10.8995 22.7894 11.0649C22.7869 11.2632 22.817 11.3108 22.9901 11.4045L23.136 11.4825L23.0785 11.6763L23.0232 11.8714L26.8241 14.0681C29.9089 15.8521 30.6292 16.2733 30.6421 16.314C30.6533 16.3417 30.6579 16.4229 30.6501 16.4941C30.6404 16.6156 30.619 16.6578 30.2929 17.2112C29.8372 17.9835 29.1672 19.0528 28.9621 19.3341C28.7724 19.5939 28.7084 19.6417 28.5285 19.6591C28.2705 19.6859 28.0541 19.5098 27.2386 18.598C26.9807 18.3101 26.682 17.9776 26.575 17.8584C26.4681 17.7393 26.2647 17.504 26.1209 17.3334C25.9757 17.165 25.714 16.8629 25.5377 16.6645C25.3615 16.466 25.0502 16.1081 24.8445 15.8715C24.6401 15.6326 24.3948 15.3491 24.3002 15.2401C24.0858 14.9924 23.6876 14.6116 23.4251 14.3998C23.3151 14.3122 23.1043 14.1423 22.9586 14.022C22.6053 13.7367 22.2192 13.4869 22.0586 13.4397C21.8794 13.3879 21.6801 13.3971 21.5218 13.4663C21.4047 13.5168 21.3688 13.5475 21.311 13.6474C21.2729 13.7132 21.2238 13.8453 21.2039 13.9427C21.1696 14.1015 21.1806 14.1926 21.3314 14.9906C21.4214 15.4691 21.534 16.0606 21.5854 16.302C21.6345 16.5421 21.6638 16.7587 21.6506 16.7814C21.606 16.8586 21.4686 16.8551 21.0209 16.7695C20.1246 16.5949 19.9366 16.5531 19.8571 16.5072C19.7866 16.4666 19.7034 16.3642 19.7003 16.317C19.698 16.2582 19.7744 16.1418 19.8606 16.0766L19.942 16.0145L19.9405 15.6868C19.9384 15.5071 19.9361 15.0761 19.9324 14.726L19.9245 14.095L19.8358 14.0439C19.7722 14.0072 19.7419 14.0019 19.7275 14.0268C19.7117 14.0541 19.6759 14.0425 19.56 13.9757C19.4304 13.901 19.4071 13.8785 19.3859 13.7997L19.3609 13.7066L18.7509 13.3672C18.4128 13.1814 18.0948 13.0132 18.0418 12.9948L17.9485 12.9622L17.7739 13.264C17.6308 13.5114 17.0072 14.3957 16.8636 14.555C16.8423 14.576 16.7765 14.6531 16.7133 14.7256C16.4767 15.0038 15.9976 15.46 15.7277 15.6645C15.6255 15.7418 15.5795 15.7637 15.5561 15.7411C15.5383 15.7248 15.1914 15.3917 14.7818 15.0044C14.3736 14.6148 14.0277 14.2853 14.0121 14.2702C13.9768 14.2317 14.0852 14.0915 14.2708 13.9382C14.4591 13.7804 14.8091 13.4163 15.2444 12.9258C15.4666 12.6726 15.8652 12.1458 16.0747 11.8308L16.2402 11.5812L16.1835 11.5273C16.1524 11.4973 16.1138 11.4539 16.0954 11.4281C16.0685 11.3854 16.0748 11.3799 16.167 11.3514L16.2674 11.3246L16.5359 10.8499C16.7374 10.4909 16.8015 10.3645 16.7919 10.3287C16.7842 10.3 16.7187 10.235 16.6467 10.1814C16.5217 10.0882 16.4933 10.0325 16.5291 9.96538C16.537 9.95176 16.5199 9.92373 16.488 9.90538C16.438 9.87656 16.4259 9.8817 16.3839 9.95433C16.3511 10.0111 16.3289 10.0285 16.3137 10.0077C16.3027 9.99525 16.2187 9.90451 16.127 9.80626C16.0376 9.70933 15.9699 9.62191 15.9765 9.61056C15.9844 9.59695 15.9646 9.57345 15.9328 9.55511C15.885 9.52759 15.8694 9.5337 15.8366 9.59044C15.8143 9.62902 15.7629 9.68113 15.7237 9.70696C15.5647 9.80897 15.8973 9.98857 11.223 7.29456C7.01935 4.87178 6.97161 4.84427 6.95239 4.77267C6.94182 4.73329 6.94307 4.67349 6.95104 4.63874C6.96723 4.58453 6.9598 4.57117 6.90226 4.55011C6.83073 4.52704 6.82506 4.48443 6.85994 4.2564L6.87037 4.18071L6.59301 4.02085C6.43841 3.93175 6.27078 3.84421 6.2191 3.82351L6.12579 3.79091L6.0326 3.95205C5.88428 4.20851 5.87579 4.21269 5.71892 4.12228C5.59615 4.05152 5.58741 4.04043 5.61235 3.99731C5.63729 3.95419 5.63082 3.94441 5.54469 3.9099C5.46668 3.87705 5.44561 3.85582 5.43059 3.7927C5.40823 3.69508 5.47028 3.58256 5.55372 3.56408C5.58958 3.55449 5.65106 3.56874 5.69198 3.59232C5.73972 3.61984 5.76543 3.62256 5.76325 3.60012C5.7637 3.57314 5.32168 3.31536 4.06925 2.60865L2.37541 1.65359L2.27692 1.68761C2.16051 1.72643 2.13418 1.71428 2.12905 1.62357L2.12383 1.55399L2.06767 1.58819C1.99681 1.63208 1.8987 1.58159 1.91954 1.50887C1.93775 1.44069 1.86955 1.40138 1.81951 1.45122C1.77436 1.49782 1.69768 1.4627 1.7074 1.39871C1.71441 1.36038 1.66929 1.32833 1.34252 1.14907L0.968969 0.945879L1.00329 0.844615C1.02079 0.788133 1.08975 0.658418 1.15372 0.55306L1.27211 0.364081L1.64698 0.565006C1.901 0.70233 2.03619 0.762092 2.06715 0.755729C2.12943 0.737153 2.19046 0.77838 2.18274 0.828403C2.17372 0.880696 2.23056 0.913454 2.27369 0.880817C2.31585 0.844599 2.39638 0.894038 2.41691 0.963366C2.43037 1.01348 2.43719 1.01742 2.48967 1.0053C2.57179 0.989084 2.60327 1.01328 2.62204 1.11185L2.63793 1.19969L4.32469 2.13554C5.93057 3.02779 6.01373 3.0727 6.08186 3.05447C6.14869 3.03852 6.16934 3.00805 6.59593 2.27045C7.07503 1.44207 7.07372 1.44434 7.21224 1.48786C7.38066 1.54257 7.47014 1.77571 7.58938 2.492C7.60745 2.60228 7.6415 2.77926 7.66351 2.88272C7.68551 2.98619 7.69693 3.12893 7.69043 3.19782C7.67719 3.3203 7.67815 3.32388 7.74077 3.29946C7.77567 3.28629 7.83401 3.27452 7.8669 3.27531C7.95706 3.28189 8.36193 3.47287 9.24362 3.92959C9.66562 4.1486 10.3183 4.48241 10.6926 4.6739C11.675 5.17657 12.3377 5.5192 13.0478 5.89519C13.872 6.33085 14.7306 6.78031 15.2943 7.06887C16.2731 7.5725 16.6544 7.7832 16.691 7.84058C16.7349 7.91131 16.7291 8.04715 16.6766 8.13793C16.6438 8.19467 16.6463 8.21126 16.6918 8.23747C16.7214 8.2545 16.7575 8.26019 16.7699 8.24919C16.7899 8.23043 17.0505 8.27774 17.2436 8.33159C17.3038 8.34811 17.3044 8.35754 17.2666 8.43863C17.2305 8.51161 17.2313 8.53631 17.2696 8.56444C17.318 8.60139 17.318 8.60139 17.4991 8.28819C17.7118 7.92052 17.8174 7.80593 18.0086 7.73754C18.2597 7.64927 18.2181 7.63738 20.184 8.46785C21.1694 8.88147 22.047 9.25106 22.1367 9.28461C22.2251 9.32044 22.3194 9.35661 22.347 9.36649C22.3746 9.37636 22.4789 9.44248 22.5805 9.51315ZM7.14441 2.16595C7.1033 2.18462 7.05028 2.24484 7.00303 2.32655L6.9269 2.45818L6.84733 2.41232L6.76775 2.36646L6.66143 2.55029C6.49736 2.83398 6.4825 2.80726 6.94857 3.07588C7.27595 3.26456 7.35264 3.29968 7.39925 3.28721C7.54139 3.25111 7.54589 3.11754 7.43086 2.62457C7.32151 2.17421 7.27754 2.10348 7.14441 2.16595ZM6.56931 3.20226C6.54718 3.19859 6.51779 3.21796 6.50335 3.24292C6.47841 3.28605 6.49074 3.29618 6.79539 3.47176C7.05684 3.62245 7.11761 3.6484 7.13205 3.62343C7.17405 3.55081 7.1063 3.48452 6.85359 3.34492C6.71814 3.26988 6.59143 3.20593 6.56931 3.20226Z" fill="white"/>
</svg>
