<svg width="21" height="21" viewBox="0 0 21 21" fill="none" xmlns="http://www.w3.org/2000/svg">
<path d="M10 7V11L12 13M1.05 10.0001C1.27409 7.80013 2.30027 5.75968 3.93274 4.26803C5.56521 2.77639 7.6897 1.93795 9.90088 1.9127C12.1121 1.88744 14.2552 2.67713 15.9213 4.1311C17.5874 5.58507 18.6599 7.60155 18.9342 9.7958C19.2085 11.99 18.6653 14.2085 17.4084 16.0278C16.1514 17.8472 14.2686 19.1401 12.1193 19.6599C9.96992 20.1797 7.70441 19.89 5.755 18.8461C3.80559 17.8022 2.30872 16.0772 1.55 14.0001M1.05 19.0001V14.0001H6.05" stroke="#576CB0" stroke-width="2" stroke-linecap="round" stroke-linejoin="round"/>
</svg>
