<svg width="45" height="45" viewBox="0 0 45 45" fill="none" xmlns="http://www.w3.org/2000/svg">
<path d="M32.6211 9.76201C31.9276 8.64967 30.5584 8.16346 29.3184 8.5906C28.0789 9.01767 27.2989 10.2441 27.4377 11.5473C27.6986 13.998 27.2805 15.8114 26.0617 17.2815C23.4634 14.3111 22.5694 10.139 23.8507 6.29657C24.0773 5.61744 24.376 4.95694 24.7633 4.27649C25.3112 3.31383 25.1897 2.04627 24.536 1.15154C24.0065 0.428467 23.164 0.000703125 22.2673 0C22.2666 0 22.2666 0 22.2659 0C21.3698 0 20.528 0.427061 19.9978 1.14943C18.5984 3.05692 6.32812 20.0645 6.32812 29.6597C6.32812 38.1184 13.4775 45 22.2659 45C31.1586 45 38.6719 37.9749 38.6719 29.6597C38.6719 23.3728 36.3531 15.7489 32.6211 9.76201ZM22.3497 42.1872C17.7039 42.1872 13.9369 39.1831 13.9369 35.476C13.9369 31.4963 19.7315 24.216 21.7024 21.8547C21.8929 21.6265 22.3167 21.7462 22.3105 22.0244C22.2864 23.101 22.3089 24.9525 22.6365 26.7183C22.9605 28.4653 23.5831 30.1284 24.7541 30.8742C26.6171 29.7946 27.4403 28.4164 27.5099 26.7202C27.5216 26.4368 27.97 26.3324 28.1321 26.5814C30.0783 29.5708 31.063 32.9418 31.063 35.476C31.0631 39.1831 26.9957 42.1872 22.3497 42.1872Z" fill="#576CB0"/>
</svg>
