<svg width="16" height="15" viewBox="0 0 16 15" fill="none" xmlns="http://www.w3.org/2000/svg">
<path fill-rule="evenodd" clip-rule="evenodd" d="M12.393 13.3126C13.7992 13.3126 14.9377 12.1734 14.9377 10.7679V8.74288C14.0077 8.74288 13.2577 7.99288 13.2577 7.06363C13.2577 6.13363 14.0077 5.38438 14.9377 5.38438L14.9362 3.35713C14.9362 1.95163 13.7977 0.812378 12.3922 0.812378H3.60823C2.20273 0.812378 1.06348 1.95163 1.06348 3.35713L1.06273 5.44963C1.99198 5.44963 2.74198 6.13363 2.74198 7.06363C2.74198 7.99288 1.99198 8.74288 1.06273 8.74288V10.7679C1.06273 12.1734 2.20123 13.3126 3.60673 13.3126H12.393Z" stroke="#576CB0" stroke-width="1.5" stroke-linecap="round" stroke-linejoin="round"/>
<path fill-rule="evenodd" clip-rule="evenodd" d="M7.99986 8.39078L9.30486 9.07703C9.42711 9.14078 9.57036 9.03728 9.54711 8.90153L9.29736 7.44728L10.3541 6.41903C10.4531 6.32228 10.3984 6.15503 10.2619 6.13478L8.80236 5.92253L8.14911 4.59953C8.08836 4.47578 7.91211 4.47578 7.85061 4.59953L7.19736 5.92253L5.73861 6.13478C5.60211 6.15503 5.54736 6.32228 5.64636 6.41903L6.70236 7.44728L6.45261 8.90153C6.42936 9.03728 6.57261 9.14078 6.69486 9.07703L7.99986 8.39078Z" stroke="#576CB0" stroke-width="1.5" stroke-linecap="round" stroke-linejoin="round"/>
</svg>
