<svg width="22" height="17" viewBox="0 0 22 17" fill="none" xmlns="http://www.w3.org/2000/svg">
<path d="M11 16C8.34784 16 5.8043 14.9464 3.92893 13.0711C2.05357 11.1957 1 8.65216 1 6C2.31322 6 3.61358 6.25866 4.82683 6.7612C6.04009 7.26375 7.14248 8.00035 8.07107 8.92893C8.99965 9.85752 9.73625 10.9599 10.2388 12.1732C10.7413 13.3864 11 14.6868 11 16ZM11 16C13.6522 16 16.1957 14.9464 18.0711 13.0711C19.9464 11.1957 21 8.65216 21 6C18.3478 6 15.8043 7.05357 13.9289 8.92893C12.0536 10.8043 11 13.3478 11 16ZM13.99 8.5C14.0595 7.10848 13.8284 5.71832 13.3124 4.42412C12.7965 3.12992 12.0078 1.96205 11 1C9.99222 1.96205 9.20352 3.12992 8.68756 4.42412C8.17161 5.71832 7.94051 7.10848 8.01 8.5" stroke="#EAC159" stroke-width="2" stroke-linecap="round" stroke-linejoin="round"/>
</svg>
