<svg width="26" height="26" viewBox="0 0 26 26" fill="none" xmlns="http://www.w3.org/2000/svg">
<path fill-rule="evenodd" clip-rule="evenodd" d="M6.9975 3.99622C6.9975 6.20628 5.20589 7.99788 2.99583 7.99788C5.20589 7.99788 6.9975 9.78949 6.9975 11.9995C6.9975 9.78949 8.78911 7.99788 10.9992 7.99788C8.78911 7.99788 6.9975 6.20628 6.9975 3.99622Z" stroke="#EAC159" stroke-width="2" stroke-linecap="round" stroke-linejoin="round"/>
<path fill-rule="evenodd" clip-rule="evenodd" d="M18.0021 16.0012C18.0021 13.2387 15.7626 10.9992 13 10.9992C15.7626 10.9992 18.0021 8.75964 18.0021 5.99707C18.0021 8.75964 20.2416 10.9992 23.0042 10.9992C20.2416 10.9992 18.0021 13.2387 18.0021 16.0012Z" stroke="#EAC159" stroke-width="2" stroke-linecap="round" stroke-linejoin="round"/>
<path d="M18.0021 16.0012V17.0016" stroke="#EAC159" stroke-width="2" stroke-linecap="round" stroke-linejoin="round"/>
<path d="M18.0021 5.99706V4.99664" stroke="#EAC159" stroke-width="2" stroke-linecap="round" stroke-linejoin="round"/>
<path d="M10.9992 22.0037V23.0041" stroke="#EAC159" stroke-width="2" stroke-linecap="round" stroke-linejoin="round"/>
<path d="M10.9992 15.0008V14.0004" stroke="#EAC159" stroke-width="2" stroke-linecap="round" stroke-linejoin="round"/>
<path d="M6.9975 11.9996V13" stroke="#EAC159" stroke-width="2" stroke-linecap="round" stroke-linejoin="round"/>
<path d="M6.9975 2.99585V3.99627" stroke="#EAC159" stroke-width="2" stroke-linecap="round" stroke-linejoin="round"/>
<path fill-rule="evenodd" clip-rule="evenodd" d="M10.9992 14.5006C10.9992 16.7107 9.20756 18.5023 6.99751 18.5023C9.20756 18.5023 10.9992 20.2939 10.9992 22.5039C10.9992 20.2939 12.7908 18.5023 15.0008 18.5023C12.7908 18.5023 10.9992 16.7107 10.9992 14.5006Z" stroke="#EAC159" stroke-width="2" stroke-linecap="round" stroke-linejoin="round"/>
</svg>
