<svg width="18" height="17" viewBox="0 0 18 17" fill="none" xmlns="http://www.w3.org/2000/svg">
<path d="M5 5H13M5 9H11M9 16L6 13H4C3.20435 13 2.44129 12.6839 1.87868 12.1213C1.31607 11.5587 1 10.7956 1 10V4C1 3.20435 1.31607 2.44129 1.87868 1.87868C2.44129 1.31607 3.20435 1 4 1H14C14.7956 1 15.5587 1.31607 16.1213 1.87868C16.6839 2.44129 17 3.20435 17 4V10C17 10.7956 16.6839 11.5587 16.1213 12.1213C15.5587 12.6839 14.7956 13 14 13H12L9 16Z" stroke="#576CB0" stroke-width="2" stroke-linecap="round" stroke-linejoin="round"/>
</svg>
