<svg width="14" height="14" viewBox="0 0 14 14" fill="none" xmlns="http://www.w3.org/2000/svg">
<path d="M4.33333 13H9.66667M7 10.3334V13M7 10.3334C7.88406 10.3334 8.7319 9.98216 9.35702 9.35704C9.98214 8.73192 10.3333 7.88407 10.3333 7.00002V1.66669H3.66667V7.00002C3.66667 7.88407 4.01786 8.73192 4.64298 9.35704C5.2681 9.98216 6.11595 10.3334 7 10.3334ZM3.66667 5.00002C3.66667 5.7364 3.06971 6.33335 2.33333 6.33335C1.59695 6.33335 1 5.7364 1 5.00002C1 4.26364 1.59695 3.66669 2.33333 3.66669C3.06971 3.66669 3.66667 4.26364 3.66667 5.00002ZM13 5.00002C13 5.7364 12.403 6.33335 11.6667 6.33335C10.9303 6.33335 10.3333 5.7364 10.3333 5.00002C10.3333 4.26364 10.9303 3.66669 11.6667 3.66669C12.403 3.66669 13 4.26364 13 5.00002Z" stroke="white" stroke-width="2" stroke-linecap="round" stroke-linejoin="round"/>
</svg>
