<svg width="20" height="19" viewBox="0 0 20 19" fill="none" xmlns="http://www.w3.org/2000/svg">
<path d="M6 18H14M10 14V18M10 14C11.3261 14 12.5979 13.4732 13.5355 12.5355C14.4732 11.5979 15 10.3261 15 9V1H5V9C5 10.3261 5.52678 11.5979 6.46447 12.5355C7.40215 13.4732 8.67392 14 10 14ZM5 6C5 7.10457 4.10457 8 3 8C1.89543 8 1 7.10457 1 6C1 4.89543 1.89543 4 3 4C4.10457 4 5 4.89543 5 6ZM19 6C19 7.10457 18.1046 8 17 8C15.8954 8 15 7.10457 15 6C15 4.89543 15.8954 4 17 4C18.1046 4 19 4.89543 19 6Z" stroke="#576CB0" stroke-width="2" stroke-linecap="round" stroke-linejoin="round"/>
</svg>
