<svg width="60" height="46" viewBox="0 0 60 46" fill="none" xmlns="http://www.w3.org/2000/svg">
<path d="M44.9197 20.1517C49.1926 20.1517 52.6588 16.6879 52.6588 12.415C52.6588 8.14212 49.1926 4.67834 44.9197 4.67834" stroke="#576CB0" stroke-width="4" stroke-linecap="round" stroke-linejoin="round"/>
<path d="M48.4776 28.5593C49.7536 28.6473 51.0222 28.8282 52.2713 29.1093C54.0069 29.4491 56.0944 30.1604 56.8376 31.7175C57.3118 32.7149 57.3118 33.876 56.8376 34.8758C56.0969 36.4329 54.0069 37.1418 52.2713 37.4987" stroke="#576CB0" stroke-width="4" stroke-linecap="round" stroke-linejoin="round"/>
<path d="M14.7733 20.1517C10.5004 20.1517 7.0342 16.6879 7.0342 12.415C7.0342 8.14212 10.5004 4.67834 14.7733 4.67834" stroke="#576CB0" stroke-width="4" stroke-linecap="round" stroke-linejoin="round"/>
<path d="M11.2154 28.5593C9.93942 28.6473 8.67076 28.8282 7.42164 29.1093C5.68609 29.4491 3.59853 30.1604 2.85787 31.7175C2.3812 32.7149 2.3812 33.876 2.85787 34.8758C3.59609 36.4329 5.68609 37.1418 7.42164 37.4987" stroke="#576CB0" stroke-width="4" stroke-linecap="round" stroke-linejoin="round"/>
<path fill-rule="evenodd" clip-rule="evenodd" d="M29.834 30.2255C38.4922 30.2255 45.8891 31.5357 45.8891 36.7791C45.8891 42.02 38.5411 43.3791 29.834 43.3791C21.1734 43.3791 13.7789 42.0689 13.7789 36.8255C13.7789 31.5822 21.1269 30.2255 29.834 30.2255Z" stroke="#576CB0" stroke-width="4" stroke-linecap="round" stroke-linejoin="round"/>
<path fill-rule="evenodd" clip-rule="evenodd" d="M29.834 22.7465C24.1238 22.7465 19.5454 18.168 19.5454 12.4554C19.5454 6.74513 24.1238 2.16669 29.834 2.16669C35.5442 2.16669 40.1227 6.74513 40.1227 12.4554C40.1227 18.168 35.5442 22.7465 29.834 22.7465Z" stroke="#576CB0" stroke-width="4" stroke-linecap="round" stroke-linejoin="round"/>
</svg>
