<svg width="54" height="54" viewBox="0 0 54 54" fill="none" xmlns="http://www.w3.org/2000/svg">
<path d="M7.78479 13.8155C7.78479 10.4848 10.4861 7.78347 13.8141 7.78347H16.5581C18.1475 7.78347 19.6755 7.15413 20.8061 6.03147L22.7235 4.11146C25.0728 1.75146 28.8915 1.7408 31.2515 4.09013L31.2755 4.11146L33.1955 6.03147C34.3235 7.15413 35.8515 7.78347 37.4435 7.78347H40.1848C43.5155 7.78347 46.2168 10.4848 46.2168 13.8155V16.5541C46.2168 18.1488 46.8461 19.6741 47.9688 20.8048L49.8888 22.7248C52.2488 25.0741 52.2621 28.8901 49.9128 31.2528L49.8888 31.2768L47.9688 33.1968C46.8461 34.3221 46.2168 35.8528 46.2168 37.4421V40.1861C46.2168 43.5168 43.5155 46.2155 40.1848 46.2155H37.4435C35.8515 46.2155 34.3235 46.8475 33.1955 47.9701L31.2755 49.8875C28.9288 52.2501 25.1101 52.2608 22.7475 49.9115C22.7395 49.9035 22.7315 49.8955 22.7235 49.8875L20.8061 47.9701C19.6755 46.8475 18.1475 46.2155 16.5581 46.2155H13.8141C10.4861 46.2155 7.78479 43.5168 7.78479 40.1861V37.4421C7.78479 35.8528 7.15279 34.3221 6.03013 33.1968L4.11279 31.2768C1.75013 28.9275 1.73946 25.1088 4.08879 22.7488L4.11279 22.7248L6.03013 20.8048C7.15279 19.6741 7.78479 18.1488 7.78479 16.5541V13.8155" stroke="#576CB0" stroke-width="4" stroke-linecap="round" stroke-linejoin="round"/>
<path d="M20.1467 33.852L33.8533 20.1453" stroke="#576CB0" stroke-width="4" stroke-linecap="round" stroke-linejoin="round"/>
<path d="M33.8445 35.8597C33.3112 35.8597 32.8045 35.6464 32.4312 35.2731C32.2445 35.0864 32.1112 34.8464 32.0045 34.6064C31.8978 34.3664 31.8445 34.1291 31.8445 33.8597C31.8445 33.5931 31.8978 33.3264 32.0045 33.0864C32.1112 32.8464 32.2445 32.6331 32.4312 32.4464C33.1778 31.6997 34.5112 31.6997 35.2578 32.4464C35.4445 32.6331 35.6045 32.8464 35.7112 33.0864C35.7912 33.3264 35.8445 33.5931 35.8445 33.8597C35.8445 34.1291 35.7912 34.3664 35.7112 34.6064C35.6045 34.8464 35.4445 35.0864 35.2578 35.2731C34.8845 35.6464 34.3778 35.8597 33.8445 35.8597Z" fill="#576CB0"/>
<path d="M20.1376 22.1541C19.8709 22.1541 19.6309 22.0981 19.3909 21.9914C19.1509 21.8848 18.9109 21.7541 18.7243 21.5674C18.5376 21.3541 18.4043 21.1408 18.2976 20.9008C18.1909 20.6581 18.1376 20.4208 18.1376 20.1541C18.1376 19.8848 18.1909 19.6208 18.2976 19.3808C18.4043 19.1408 18.5376 18.9008 18.7243 18.7408C19.4976 17.9914 20.8043 17.9914 21.5509 18.7408C21.9243 19.1114 22.1376 19.6208 22.1376 20.1541C22.1376 20.4208 22.1109 20.6581 22.0043 20.9008C21.8976 21.1408 21.7376 21.3541 21.5509 21.5674C21.3643 21.7541 21.1509 21.8848 20.9109 21.9914C20.6709 22.0981 20.4043 22.1541 20.1376 22.1541Z" fill="#576CB0"/>
</svg>
