<svg width="12" height="12" viewBox="0 0 12 12" fill="none" xmlns="http://www.w3.org/2000/svg">
<path d="M5.99991 6C6.27605 6 6.49991 5.77614 6.49991 5.5C6.49991 5.22386 6.27605 5 5.99991 5C5.72377 5 5.49991 5.22386 5.49991 5.5C5.49991 5.77614 5.72377 6 5.99991 6ZM5.99991 6V7.25M5.99992 1.5C7.16783 2.53329 8.69215 3.07128 10.2499 3C10.4767 3.77151 10.5461 4.58073 10.454 5.37959C10.3619 6.17845 10.1101 6.95063 9.71362 7.65026C9.31716 8.34989 8.78411 8.96269 8.14614 9.45224C7.50818 9.94179 6.77831 10.2981 5.99992 10.5C5.22152 10.2981 4.49166 9.94179 3.85369 9.45224C3.21572 8.96269 2.68267 8.34989 2.28621 7.65026C1.88976 6.95063 1.63798 6.17845 1.54585 5.37959C1.45373 4.58073 1.52312 3.77151 1.74992 3C3.30768 3.07128 4.832 2.53329 5.99992 1.5Z" stroke="#455489" stroke-width="1.5" stroke-linecap="round" stroke-linejoin="round"/>
</svg>
