<svg width="18" height="18" viewBox="0 0 18 18" fill="none" xmlns="http://www.w3.org/2000/svg">
<path d="M8.24969 13.5019H3.65403C3.28085 13.5021 2.9229 13.3539 2.65903 13.09C2.39515 12.8262 2.24699 12.4682 2.24719 12.095V3.65403C2.24699 3.28085 2.39515 2.9229 2.65903 2.65903C2.9229 2.39515 3.28085 2.24699 3.65403 2.24719H12.095C12.4682 2.24699 12.8262 2.39515 13.09 2.65903C13.3539 2.9229 13.5021 3.28085 13.5019 3.65403V8.24969" stroke="#576CB0" stroke-width="2" stroke-linecap="round" stroke-linejoin="round"/>
<path fill-rule="evenodd" clip-rule="evenodd" d="M13.7217 15.5329L16.2833 12.9714C16.5762 12.6784 16.5762 12.2034 16.2833 11.9104L15.0933 10.7204C14.8003 10.4275 14.3254 10.4275 14.0324 10.7204L11.4708 13.282C11.3301 13.4227 11.2509 13.6135 11.2509 13.8125V15.7528H13.1913C13.3902 15.7528 13.581 15.6736 13.7217 15.5329Z" stroke="#576CB0" stroke-width="2" stroke-linecap="round" stroke-linejoin="round"/>
</svg>
