<svg width="140" height="140" viewBox="0 0 140 140" fill="none" xmlns="http://www.w3.org/2000/svg">
<path d="M15.3055 54.368C15.3055 54.368 19.6297 48.7945 16.8331 41.0542C14.0267 33.3187 7.49161 30.3807 7.49161 30.3807C7.49161 30.3807 2.60125 37.0229 5.33439 44.5632C8.06264 52.1083 15.3055 54.368 15.3055 54.368Z" fill="#EC8850"/>
<path d="M27.3068 58.326C27.3068 58.326 34.8669 57.7208 39.196 50.9615C43.5251 44.2069 40.216 36.652 40.216 36.652C40.216 36.652 33.1977 38.0771 28.7515 45.0122C24.3102 51.9424 27.3068 58.326 27.3068 58.326Z" fill="#EC8850"/>
<path d="M28.0731 67.2572C24.5737 74.7096 28.3757 80.654 28.3757 80.654C28.3757 80.654 35.7991 79.063 39.2058 71.8058C42.6075 64.5388 38.3419 57.4817 38.3419 57.4817C38.3419 57.4817 31.5725 59.8048 28.0731 67.2572Z" fill="#EC8850"/>
<path d="M45.1601 73.2601C45.1601 73.2601 38.6348 76.2177 35.8528 83.958C33.0709 91.713 37.4097 97.267 37.4097 97.267C37.4097 97.267 44.6428 94.9878 47.3564 87.4378C50.0651 79.8878 45.1601 73.2601 45.1601 73.2601Z" fill="#EC8850"/>
<path d="M50.5972 114.022C50.5972 114.022 56.8736 109.751 57.2982 101.742C57.718 93.7287 51.1047 88.7994 51.1047 88.7994C51.1047 88.7994 45.7068 93.5091 45.2724 101.728C44.8429 109.941 50.5972 114.022 50.5972 114.022Z" fill="#EC8850"/>
<path d="M24.9447 39.4534C24.9447 39.4534 31.636 37.2182 33.598 29.2289C35.5649 21.2396 31.7629 15.1684 31.7629 15.1684C31.7629 15.1684 24.0125 17.9795 22.0945 25.7736C20.1813 33.5627 24.9447 39.4534 24.9447 39.4534Z" fill="#EC8850"/>
<path d="M15.3006 71.3568C15.3006 71.3568 17.7848 64.7535 12.831 58.1894C7.86745 51.6203 0.761299 50.7369 0.761299 50.7369C0.761299 50.7369 -1.95231 58.5261 2.87948 64.9292C7.71127 71.3372 15.3006 71.3568 15.3006 71.3568Z" fill="#EC8850"/>
<path d="M20.8449 88.7799C20.8449 88.7799 21.7966 81.7911 15.5104 76.491C9.21445 71.186 2.08877 71.9083 2.08877 71.9083C2.08877 71.9083 1.17122 80.1074 7.30125 85.2758C13.441 90.4393 20.8449 88.7799 20.8449 88.7799Z" fill="#EC8850"/>
<path d="M29.2884 103.187C29.2884 103.187 28.0926 96.2372 20.4887 93.0942C12.8798 89.9415 6.31053 92.7867 6.31053 92.7867C6.31053 92.7867 7.92113 100.878 15.3299 103.953C22.7386 107.013 29.2884 103.187 29.2884 103.187Z" fill="#EC8850"/>
<path d="M32.9782 109.17C25.0521 106.955 18.8635 110.561 18.8635 110.561C18.8635 110.561 21.4258 118.399 29.1469 120.561C36.8778 122.723 42.92 118.141 42.92 118.141C42.92 118.141 40.9043 111.381 32.9782 109.17Z" fill="#EC8850"/>
<path d="M25.7695 44.2167L22.2457 42.4841C22.0603 42.8697 3.9337 81.3714 54.8676 124.91L57.4153 121.928C8.92167 80.4685 25.0569 45.6759 25.7695 44.2167Z" fill="#EC8850"/>
<path d="M124.694 54.2947C124.694 54.2947 120.365 48.7213 123.167 40.9858C125.963 33.2455 132.503 30.3074 132.503 30.3074C132.503 30.3074 137.389 36.9448 134.656 44.49C131.937 52.0351 124.694 54.2947 124.694 54.2947Z" fill="#EC8850"/>
<path d="M112.693 58.2528C112.693 58.2528 105.133 57.6427 100.799 50.8882C96.47 44.1337 99.779 36.5788 99.779 36.5788C99.779 36.5788 106.797 38.0039 111.248 44.9341C115.69 51.8692 112.693 58.2528 112.693 58.2528Z" fill="#EC8850"/>
<path d="M111.927 67.1791C115.426 74.6315 111.624 80.5758 111.624 80.5758C111.624 80.5758 104.201 78.9848 100.789 71.7276C97.3923 64.4607 101.653 57.4036 101.653 57.4036C101.653 57.4036 108.427 59.7315 111.927 67.1791Z" fill="#EC8850"/>
<path d="M94.8398 73.187C94.8398 73.187 101.36 76.1396 104.147 83.8946C106.929 91.6447 102.585 97.1987 102.585 97.1987C102.585 97.1987 95.3571 94.9146 92.6435 87.3646C89.9299 79.8146 94.8398 73.187 94.8398 73.187Z" fill="#EC8850"/>
<path d="M89.393 113.943C89.393 113.943 83.1215 109.678 82.6969 101.664C82.2771 93.6505 88.8952 88.7164 88.8952 88.7164C88.8952 88.7164 94.2834 93.426 94.7227 101.65C95.157 109.873 89.393 113.943 89.393 113.943Z" fill="#EC8850"/>
<path d="M115.045 39.3802C115.045 39.3802 108.364 37.1449 106.402 29.1557C104.435 21.1664 108.242 15.0903 108.242 15.0903C108.242 15.0903 115.992 17.9014 117.905 25.7003C119.819 33.4846 115.045 39.3802 115.045 39.3802Z" fill="#EC8850"/>
<path d="M124.699 71.2835C124.699 71.2835 122.215 64.6803 127.164 58.1161C132.128 51.5471 139.239 50.6637 139.239 50.6637C139.239 50.6637 141.957 58.4529 137.12 64.856C132.284 71.264 124.699 71.2835 124.699 71.2835Z" fill="#EC8850"/>
<path d="M119.155 88.7067C119.155 88.7067 118.198 81.7179 124.489 76.408C130.785 71.1078 137.911 71.8301 137.911 71.8301C137.911 71.8301 138.829 80.0341 132.694 85.1976C126.559 90.3611 119.155 88.7067 119.155 88.7067Z" fill="#EC8850"/>
<path d="M110.707 103.114C110.707 103.114 111.907 96.1591 119.511 93.0112C127.125 89.8585 133.689 92.7037 133.689 92.7037C133.689 92.7037 132.079 100.795 124.67 103.865C117.256 106.94 110.707 103.114 110.707 103.114Z" fill="#EC8850"/>
<path d="M107.017 109.097C114.943 106.886 121.136 110.488 121.136 110.488C121.136 110.488 118.579 118.321 110.853 120.498C103.127 122.65 97.0848 118.067 97.0848 118.067C97.0848 118.067 99.0956 111.313 107.017 109.097Z" fill="#EC8850"/>
<path d="M114.226 44.1435L117.759 42.4109C117.945 42.7965 136.071 81.2982 85.1323 124.832L82.5895 121.85C131.073 80.4002 114.938 45.5979 114.226 44.1435Z" fill="#EC8850"/>
</svg>
