<svg width="25" height="24" viewBox="0 0 25 24" fill="none" xmlns="http://www.w3.org/2000/svg">
<path d="M18.3333 9.33333L23.6667 14.6667M23.6667 9.33333L18.3333 14.6667M5 16H2.33333C1.97971 16 1.64057 15.8595 1.39052 15.6094C1.14048 15.3594 1 15.0203 1 14.6666V9.3333C1 8.97968 1.14048 8.64054 1.39052 8.39049C1.64057 8.14044 1.97971 7.99997 2.33333 7.99997H5L9.66667 1.99996C9.7832 1.77361 9.97686 1.5964 10.2127 1.50035C10.4484 1.40431 10.7108 1.39578 10.9523 1.47629C11.1939 1.5568 11.3986 1.72105 11.5296 1.93935C11.6606 2.15766 11.7093 2.41562 11.6667 2.66663V21.3333C11.7093 21.5843 11.6606 21.8423 11.5296 22.0606C11.3986 22.2789 11.1939 22.4431 10.9523 22.5236C10.7108 22.6042 10.4484 22.5956 10.2127 22.4996C9.97686 22.4035 9.7832 22.2263 9.66667 22L5 16Z" stroke="#576CB0" stroke-width="2" stroke-linecap="round" stroke-linejoin="round"/>
</svg>
