<svg width="57" height="36" viewBox="0 0 57 36" fill="none" xmlns="http://www.w3.org/2000/svg">
<path d="M4.22224 0H52.7778C55.1095 0 57 1.89638 57 4.2353V31.7647C57 34.1036 55.1095 36 52.7778 36H4.22224C1.89053 35.9999 0 34.1036 0 31.7647V4.2353C0 1.89638 1.89053 0 4.22224 0Z" fill="#4E70E9"/>
<path d="M52.7778 0H51.9333C41.9688 17.7448 23.35 29.917 11.9837 35.9999H52.7778C55.1095 35.9999 57 34.1035 57 31.7646V4.2353C57 1.89638 55.1095 0 52.7778 0Z" fill="#4E70E9"/>
<path d="M52.7778 0H51.9333C41.9688 17.7448 23.35 29.917 11.9837 35.9999H52.7778C55.1095 35.9999 57 34.1035 57 31.7646V4.2353C57 1.89638 55.1095 0 52.7778 0Z" fill="black" fill-opacity="0.12"/>
<path d="M15.8333 5.29419H5.27777V13.7648H15.8333V5.29419Z" fill="#FDB62F"/>
<path d="M8.44448 8.4707H5.27777V10.5883H8.44448V8.4707Z" fill="#FD7B2F"/>
<path d="M15.8334 8.4707H12.6667V10.5883H15.8334V8.4707Z" fill="#FD7B2F"/>
<path d="M46.4445 30.7059C49.3593 30.7059 51.7223 28.3356 51.7223 25.4118C51.7223 22.4879 49.3593 20.1177 46.4445 20.1177C43.5297 20.1177 41.1667 22.4879 41.1667 25.4118C41.1667 28.3356 43.5297 30.7059 46.4445 30.7059Z" fill="#FDB62F"/>
<path d="M40.1111 30.7059C43.0259 30.7059 45.3888 28.3356 45.3888 25.4118C45.3888 22.4879 43.0259 20.1177 40.1111 20.1177C37.1962 20.1177 34.8333 22.4879 34.8333 25.4118C34.8333 28.3356 37.1962 30.7059 40.1111 30.7059Z" fill="#DE4C3C"/>
<path d="M10.5555 21.1765H4.22223V23.2941H10.5555V21.1765Z" fill="#A6B7F4"/>
<path d="M21.1111 21.1765H14.7778V23.2941H21.1111V21.1765Z" fill="#A6B7F4"/>
<path d="M31.6665 21.1765H25.3333V23.2941H31.6665V21.1765Z" fill="#A6B7F4"/>
<path d="M31.6667 27.5295H4.22223V29.6471H31.6667V27.5295Z" fill="#A6B7F4"/>
<path d="M39.0555 5.29419H36.9445V9.52949H39.0555V5.29419Z" fill="#A6B7F4"/>
<path d="M43.2777 5.29419H41.1667V9.52949H43.2777V5.29419Z" fill="#A6B7F4"/>
<path d="M47.4999 5.29419H45.3888V9.52949H47.4999V5.29419Z" fill="#A6B7F4"/>
<path d="M51.7221 5.29419H49.611V9.52949H51.7221V5.29419Z" fill="#A6B7F4"/>
</svg>
