<svg width="472" height="226" viewBox="0 0 472 226" fill="none" xmlns="http://www.w3.org/2000/svg">
<g clip-path="url(#clip0_686_3835)">
<mask id="mask0_686_3835" style="mask-type:alpha" maskUnits="userSpaceOnUse" x="0" y="0" width="472" height="226">
<rect width="472" height="226" fill="url(#paint0_linear_686_3835)"/>
</mask>
<g mask="url(#mask0_686_3835)">
<path d="M42 28C42 22.4772 46.4772 18 52 18H165.988C168.281 18 170.504 18.7878 172.285 20.2315L177.396 24.375C181.228 27.4808 186.752 27.329 190.407 24.0175L194.192 20.5889C196.031 18.9228 198.424 18 200.906 18H309.113C311.754 18 314.288 19.0448 316.162 20.9063L318.036 22.769C321.936 26.644 328.233 26.644 332.133 22.769L334.008 20.9063C335.881 19.0448 338.415 18 341.056 18H457C462.523 18 467 22.4772 467 28V229C467 234.523 462.523 239 457 239H52C46.4772 239 42 234.523 42 229V28Z" fill="#455489" fill-opacity="0.2" stroke="#455489" stroke-opacity="0.2" stroke-width="10" stroke-linejoin="round"/>
<mask id="mask1_686_3835" style="mask-type:alpha" maskUnits="userSpaceOnUse" x="37" y="13" width="435" height="226">
<path d="M37 26.9999C37 19.268 43.268 12.9999 51 12.9999H162.574C165.782 12.9999 168.893 14.1015 171.385 16.1203L173.08 17.4931C178.443 21.8359 186.17 21.6237 191.286 16.993L191.698 16.6203C194.272 14.2902 197.621 12.9999 201.093 12.9999H309.606C312.817 12.9999 315.897 14.2693 318.176 16.5313V16.5313C322.919 21.2397 330.572 21.2397 335.315 16.5313V16.5313C337.594 14.2693 340.674 12.9999 343.885 12.9999H458C465.732 12.9999 472 19.268 472 26.9999V225C472 232.732 465.732 239 458 239H51C43.268 239 37 232.732 37 225V26.9999Z" fill="url(#paint1_linear_686_3835)"/>
</mask>
<g mask="url(#mask1_686_3835)">
<g style="mix-blend-mode:screen" opacity="0.4" filter="url(#filter0_f_686_3835)">
<path d="M40.5964 116.571L37.1526 16.5376C36.118 12.2042 40.286 13.0706 51.4591 13.0706H113.931C117.345 13.0262 120.531 13.0269 123.36 13.0706H113.931C91.3309 13.3649 58.7383 15.6379 53.7052 20.503C46.4634 27.503 42.6655 12.0706 40.5964 116.571Z" fill="#4F515B"/>
</g>
<g style="mix-blend-mode:screen" opacity="0.4" filter="url(#filter1_f_686_3835)">
<path d="M468.404 116.571L471.847 16.5376C472.882 12.2042 468.714 13.0706 457.541 13.0706H395.069C391.655 13.0262 388.469 13.0269 385.64 13.0706H395.069C417.669 13.3649 450.262 15.6379 455.295 20.503C462.537 27.503 466.335 12.0706 468.404 116.571Z" fill="#4F515B"/>
</g>
</g>
<g filter="url(#filter2_i_686_3835)">
<path d="M21.9999 138C19.8332 113.5 30.8011 53.2807 66.9999 75C94.4999 91.5 124.183 32.2027 131.5 18C140 1.49998 169.5 -8 183.5 20" stroke="url(#paint2_linear_686_3835)" stroke-width="3" stroke-linecap="round"/>
</g>
<path d="M4 141C4 135.477 8.47715 131 14 131H32C37.5228 131 42 135.477 42 141V234C42 236.761 39.7614 239 37 239H9C6.23858 239 4 236.761 4 234V141Z" fill="url(#paint3_linear_686_3835)"/>
<mask id="mask2_686_3835" style="mask-type:alpha" maskUnits="userSpaceOnUse" x="4" y="130" width="40" height="109">
<path d="M4 141C4 135.477 8.47715 131 14 131H34C39.5228 131 44 135.477 44 141V234C44 236.761 41.7614 239 39 239H9C6.23858 239 4 236.761 4 234V141Z" fill="#25252F"/>
<path d="M4 141C4 135.477 8.47715 131 14 131H34C39.5228 131 44 135.477 44 141V234C44 236.761 41.7614 239 39 239H9C6.23858 239 4 236.761 4 234V141Z" fill="#25252F" fill-opacity="0.46"/>
</mask>
<g mask="url(#mask2_686_3835)">
<g filter="url(#filter3_f_686_3835)">
<path d="M4 133H44V149H4V133Z" fill="#1E2542" fill-opacity="0.3"/>
</g>
</g>
<path d="M0 134C0 132.343 1.34315 131 3 131H43C44.6569 131 46 132.343 46 134V144C46 145.657 44.6569 147 43 147H3C1.34315 147 0 145.657 0 144V134Z" fill="url(#paint4_linear_686_3835)"/>
<mask id="mask3_686_3835" style="mask-type:alpha" maskUnits="userSpaceOnUse" x="0" y="130" width="46" height="17">
<path d="M0 134C0 132.343 1.34315 131 3 131H43C44.6569 131 46 132.343 46 134V144C46 145.657 44.6569 147 43 147H3C1.34315 147 0 145.657 0 144V134Z" fill="#25252F"/>
</mask>
<g mask="url(#mask3_686_3835)">
<g style="mix-blend-mode:overlay" filter="url(#filter4_f_686_3835)">
<path d="M0.478305 131.477L0.200489 137.589C0.173452 138.184 1.02237 138.319 1.18173 137.746L2.41411 133.309C2.46644 133.121 2.6238 132.98 2.81688 132.949L8.78925 131.994C9.39729 131.896 9.32603 131 8.71025 131H0.977789C0.710475 131 0.490443 131.21 0.478305 131.477Z" fill="white"/>
</g>
</g>
<g opacity="0.3">
<g filter="url(#filter5_i_686_3835)">
<circle cx="191.5" cy="54.5" r="2.5" fill="#151B37"/>
</g>
<g filter="url(#filter6_i_686_3835)">
<circle cx="212.5" cy="54.5" r="2.5" fill="#151B37"/>
</g>
<g filter="url(#filter7_i_686_3835)">
<circle cx="233.5" cy="54.5" r="2.5" fill="#151B37"/>
</g>
<g filter="url(#filter8_i_686_3835)">
<circle cx="254.5" cy="54.5" r="2.5" fill="#151B37"/>
</g>
<g filter="url(#filter9_i_686_3835)">
<circle cx="275.5" cy="54.5" r="2.5" fill="#151B37"/>
</g>
<g filter="url(#filter10_i_686_3835)">
<circle cx="296.5" cy="54.5" r="2.5" fill="#151B37"/>
</g>
<g filter="url(#filter11_i_686_3835)">
<circle cx="317.5" cy="54.5" r="2.5" fill="#151B37"/>
</g>
</g>
<g filter="url(#filter12_i_686_3835)">
<path d="M133 93.6669C133 84.8304 140.163 77.6669 149 77.6669H360.158C368.994 77.6669 376.158 84.8304 376.158 93.6669V229.825C376.158 234.912 372.034 239.035 366.947 239.035H358.005C357.857 239.035 357.737 238.916 357.737 238.768V238.768C357.737 238.62 357.617 238.5 357.469 238.5H153.732C153.677 238.5 153.632 238.455 153.632 238.399V238.399C153.632 238.344 153.586 238.299 153.531 238.299H143.316C137.619 238.299 133 233.68 133 227.983L133 93.6669Z" fill="url(#paint5_linear_686_3835)" fill-opacity="0.14"/>
</g>
<path d="M150 95.4038C150 93.747 151.343 92.4038 153 92.4038H356.263C357.92 92.4038 359.263 93.747 359.263 95.4038V152.035C359.263 153.692 357.92 155.035 356.263 155.035H349.737C348.08 155.035 346.737 156.379 346.737 158.035V164.562C346.737 166.219 345.394 167.562 343.737 167.562H298.158C296.501 167.562 295.158 166.219 295.158 164.562V158.035C295.158 156.379 293.815 155.035 292.158 155.035H254.632H153C151.343 155.035 150 153.692 150 152.035V95.4038Z" fill="#1E2542" fill-opacity="0.5"/>
<path d="M153 92.9038H356.263C357.644 92.9038 358.763 94.0231 358.763 95.4038V152.035C358.763 153.416 357.644 154.535 356.263 154.535H349.737C347.804 154.535 346.237 156.102 346.237 158.035V164.562C346.237 165.942 345.118 167.062 343.737 167.062H298.158C296.777 167.062 295.658 165.942 295.658 164.562V158.035C295.658 156.102 294.091 154.535 292.158 154.535H254.632H153C151.619 154.535 150.5 153.416 150.5 152.035V95.4038C150.5 94.0231 151.619 92.9038 153 92.9038Z" stroke="white" stroke-opacity="0.2" style="mix-blend-mode:overlay"/>
<g filter="url(#filter13_i_686_3835)">
<rect x="77" y="86" width="36" height="77" rx="5" fill="#1E2542"/>
</g>
<rect x="75.5" y="84.5" width="39" height="80" rx="6.5" stroke="#1E2542" stroke-opacity="0.5" stroke-width="3"/>
<g clip-path="url(#clip1_686_3835)">
<path d="M4 171H472V239H4L4 230.5L4 222L4 213.5L4 205L4 196.5L4 188L4 179.5L4 171Z" fill="#212947"/>
<rect opacity="0.15" x="4" y="173" width="468" height="3" fill="url(#paint6_linear_686_3835)"/>
<rect opacity="0.15" x="4" y="181" width="468" height="3" fill="url(#paint7_linear_686_3835)"/>
<rect opacity="0.15" x="4" y="188" width="468" height="3" fill="url(#paint8_linear_686_3835)"/>
<rect opacity="0.15" x="4" y="196" width="468" height="3" fill="url(#paint9_linear_686_3835)"/>
<rect opacity="0.15" x="4" y="203" width="468" height="3" fill="url(#paint10_linear_686_3835)"/>
<rect opacity="0.15" x="4" y="210" width="468" height="3" fill="url(#paint11_linear_686_3835)"/>
<rect opacity="0.15" x="4" y="218" width="468" height="3" fill="url(#paint12_linear_686_3835)"/>
</g>
<g filter="url(#filter14_i_686_3835)">
<circle cx="305.5" cy="160.5" r="2.5" fill="#1F2643"/>
</g>
<g filter="url(#filter15_i_686_3835)">
<circle cx="315.5" cy="160.5" r="2.5" fill="#1F2643"/>
</g>
<circle cx="325.5" cy="160.5" r="2.5" fill="#4E70E9"/>
<g filter="url(#filter16_i_686_3835)">
<path d="M325.5 160.5C342.167 179.167 375 186 416 171.5C471.225 151.969 438.435 104.824 394 86.5001C345.5 66.5 351.5 -29.5 321 16.5" stroke="url(#paint13_linear_686_3835)" stroke-width="3" stroke-linecap="round"/>
</g>
<g filter="url(#filter17_i_686_3835)">
<circle cx="335.5" cy="160.5" r="2.5" fill="#1F2643"/>
</g>
<circle cx="95" cy="105" r="6" fill="#97CF6A" fill-opacity="0.5"/>
<circle cx="95" cy="105" r="6.5" stroke="#97CF6A" stroke-opacity="0.3"/>
<g style="mix-blend-mode:screen" filter="url(#filter18_f_686_3835)">
<circle cx="97" cy="103" r="2" fill="#97CF6A"/>
</g>
<circle cx="95" cy="144" r="6" fill="#FF5C30" fill-opacity="0.5"/>
<circle cx="95" cy="144" r="6.5" stroke="#FF5C30" stroke-opacity="0.3"/>
<g style="mix-blend-mode:screen" filter="url(#filter19_f_686_3835)">
<circle cx="97" cy="142" r="2" fill="#E14D44"/>
</g>
<g filter="url(#filter20_i_686_3835)">
<rect x="159" y="100" width="192" height="44" rx="3" fill="#1E2542"/>
</g>
<g clip-path="url(#clip2_686_3835)">
<path d="M159 101.512C159 101.229 159.224 101 159.5 101H350.5C350.776 101 351 101.229 351 101.512C351 101.795 350.776 102.024 350.5 102.024H159.5C159.224 102.024 159 101.795 159 101.512Z" fill="url(#paint14_linear_686_3835)"/>
<path d="M159 103.561C159 103.278 159.224 103.049 159.5 103.049H350.5C350.776 103.049 351 103.278 351 103.561C351 103.844 350.776 104.073 350.5 104.073H159.5C159.224 104.073 159 103.844 159 103.561Z" fill="url(#paint15_linear_686_3835)"/>
<path d="M159 105.61C159 105.327 159.224 105.098 159.5 105.098H350.5C350.776 105.098 351 105.327 351 105.61C351 105.893 350.776 106.122 350.5 106.122H159.5C159.224 106.122 159 105.893 159 105.61Z" fill="url(#paint16_linear_686_3835)"/>
<path d="M159 107.659C159 107.376 159.224 107.146 159.5 107.146H350.5C350.776 107.146 351 107.376 351 107.659C351 107.941 350.776 108.171 350.5 108.171H159.5C159.224 108.171 159 107.941 159 107.659Z" fill="url(#paint17_linear_686_3835)"/>
<path d="M159 109.707C159 109.424 159.224 109.195 159.5 109.195H350.5C350.776 109.195 351 109.424 351 109.707C351 109.99 350.776 110.22 350.5 110.22H159.5C159.224 110.22 159 109.99 159 109.707Z" fill="url(#paint18_linear_686_3835)"/>
<path d="M159 111.756C159 111.473 159.224 111.244 159.5 111.244H350.5C350.776 111.244 351 111.473 351 111.756C351 112.039 350.776 112.268 350.5 112.268H159.5C159.224 112.268 159 112.039 159 111.756Z" fill="url(#paint19_linear_686_3835)"/>
<path d="M159 113.805C159 113.522 159.224 113.293 159.5 113.293H350.5C350.776 113.293 351 113.522 351 113.805C351 114.088 350.776 114.317 350.5 114.317H159.5C159.224 114.317 159 114.088 159 113.805Z" fill="url(#paint20_linear_686_3835)"/>
<path d="M159 115.854C159 115.571 159.224 115.341 159.5 115.341H350.5C350.776 115.341 351 115.571 351 115.854C351 116.137 350.776 116.366 350.5 116.366H159.5C159.224 116.366 159 116.137 159 115.854Z" fill="url(#paint21_linear_686_3835)"/>
<path d="M159 117.902C159 117.62 159.224 117.39 159.5 117.39H350.5C350.776 117.39 351 117.62 351 117.902C351 118.185 350.776 118.415 350.5 118.415H159.5C159.224 118.415 159 118.185 159 117.902Z" fill="url(#paint22_linear_686_3835)"/>
<path d="M159 119.951C159 119.668 159.224 119.439 159.5 119.439H350.5C350.776 119.439 351 119.668 351 119.951C351 120.234 350.776 120.463 350.5 120.463H159.5C159.224 120.463 159 120.234 159 119.951Z" fill="url(#paint23_linear_686_3835)"/>
<path d="M159 122C159 121.717 159.224 121.488 159.5 121.488H350.5C350.776 121.488 351 121.717 351 122C351 122.283 350.776 122.512 350.5 122.512H159.5C159.224 122.512 159 122.283 159 122Z" fill="url(#paint24_linear_686_3835)"/>
<path d="M159 124.049C159 123.766 159.224 123.537 159.5 123.537H350.5C350.776 123.537 351 123.766 351 124.049C351 124.332 350.776 124.561 350.5 124.561H159.5C159.224 124.561 159 124.332 159 124.049Z" fill="url(#paint25_linear_686_3835)"/>
<path d="M159 126.098C159 125.815 159.224 125.585 159.5 125.585H350.5C350.776 125.585 351 125.815 351 126.098C351 126.38 350.776 126.61 350.5 126.61H159.5C159.224 126.61 159 126.38 159 126.098Z" fill="url(#paint26_linear_686_3835)"/>
<path d="M159 128.146C159 127.863 159.224 127.634 159.5 127.634H350.5C350.776 127.634 351 127.863 351 128.146C351 128.429 350.776 128.659 350.5 128.659H159.5C159.224 128.659 159 128.429 159 128.146Z" fill="url(#paint27_linear_686_3835)"/>
<path d="M159 130.195C159 129.912 159.224 129.683 159.5 129.683H350.5C350.776 129.683 351 129.912 351 130.195C351 130.478 350.776 130.707 350.5 130.707H159.5C159.224 130.707 159 130.478 159 130.195Z" fill="url(#paint28_linear_686_3835)"/>
<path d="M159 132.244C159 131.961 159.224 131.732 159.5 131.732H350.5C350.776 131.732 351 131.961 351 132.244C351 132.527 350.776 132.756 350.5 132.756H159.5C159.224 132.756 159 132.527 159 132.244Z" fill="url(#paint29_linear_686_3835)"/>
<path d="M159 134.293C159 134.01 159.224 133.78 159.5 133.78H350.5C350.776 133.78 351 134.01 351 134.293C351 134.576 350.776 134.805 350.5 134.805H159.5C159.224 134.805 159 134.576 159 134.293Z" fill="url(#paint30_linear_686_3835)"/>
<path d="M159 136.341C159 136.059 159.224 135.829 159.5 135.829H350.5C350.776 135.829 351 136.059 351 136.341C351 136.624 350.776 136.854 350.5 136.854H159.5C159.224 136.854 159 136.624 159 136.341Z" fill="url(#paint31_linear_686_3835)"/>
<path d="M159 138.39C159 138.107 159.224 137.878 159.5 137.878H350.5C350.776 137.878 351 138.107 351 138.39C351 138.673 350.776 138.902 350.5 138.902H159.5C159.224 138.902 159 138.673 159 138.39Z" fill="url(#paint32_linear_686_3835)"/>
<path d="M159 140.439C159 140.156 159.224 139.927 159.5 139.927H350.5C350.776 139.927 351 140.156 351 140.439C351 140.722 350.776 140.951 350.5 140.951H159.5C159.224 140.951 159 140.722 159 140.439Z" fill="url(#paint33_linear_686_3835)"/>
<path d="M159 142.488C159 142.205 159.224 141.976 159.5 141.976H350.5C350.776 141.976 351 142.205 351 142.488C351 142.771 350.776 143 350.5 143H159.5C159.224 143 159 142.771 159 142.488Z" fill="url(#paint34_linear_686_3835)"/>
</g>
</g>
</g>
<defs>
<filter id="filter0_f_686_3835" x="27" y="2.99994" width="106.36" height="123.571" filterUnits="userSpaceOnUse" color-interpolation-filters="sRGB">
<feFlood flood-opacity="0" result="BackgroundImageFix"/>
<feBlend mode="normal" in="SourceGraphic" in2="BackgroundImageFix" result="shape"/>
<feGaussianBlur stdDeviation="5" result="effect1_foregroundBlur_686_3835"/>
</filter>
<filter id="filter1_f_686_3835" x="375.64" y="2.99994" width="106.36" height="123.571" filterUnits="userSpaceOnUse" color-interpolation-filters="sRGB">
<feFlood flood-opacity="0" result="BackgroundImageFix"/>
<feBlend mode="normal" in="SourceGraphic" in2="BackgroundImageFix" result="shape"/>
<feGaussianBlur stdDeviation="5" result="effect1_foregroundBlur_686_3835"/>
</filter>
<filter id="filter2_i_686_3835" x="20.2385" y="0.696106" width="164.762" height="138.804" filterUnits="userSpaceOnUse" color-interpolation-filters="sRGB">
<feFlood flood-opacity="0" result="BackgroundImageFix"/>
<feBlend mode="normal" in="SourceGraphic" in2="BackgroundImageFix" result="shape"/>
<feColorMatrix in="SourceAlpha" type="matrix" values="0 0 0 0 0 0 0 0 0 0 0 0 0 0 0 0 0 0 127 0" result="hardAlpha"/>
<feOffset dy="2"/>
<feComposite in2="hardAlpha" operator="arithmetic" k2="-1" k3="1"/>
<feColorMatrix type="matrix" values="0 0 0 0 1 0 0 0 0 1 0 0 0 0 1 0 0 0 0.5 0"/>
<feBlend mode="overlay" in2="shape" result="effect1_innerShadow_686_3835"/>
</filter>
<filter id="filter3_f_686_3835" x="0" y="129" width="48" height="24" filterUnits="userSpaceOnUse" color-interpolation-filters="sRGB">
<feFlood flood-opacity="0" result="BackgroundImageFix"/>
<feBlend mode="normal" in="SourceGraphic" in2="BackgroundImageFix" result="shape"/>
<feGaussianBlur stdDeviation="2" result="effect1_foregroundBlur_686_3835"/>
</filter>
<filter id="filter4_f_686_3835" x="-2.80005" y="128" width="15.0105" height="13.1125" filterUnits="userSpaceOnUse" color-interpolation-filters="sRGB">
<feFlood flood-opacity="0" result="BackgroundImageFix"/>
<feBlend mode="normal" in="SourceGraphic" in2="BackgroundImageFix" result="shape"/>
<feGaussianBlur stdDeviation="1.5" result="effect1_foregroundBlur_686_3835"/>
</filter>
<filter id="filter5_i_686_3835" x="189" y="52" width="5" height="5" filterUnits="userSpaceOnUse" color-interpolation-filters="sRGB">
<feFlood flood-opacity="0" result="BackgroundImageFix"/>
<feBlend mode="normal" in="SourceGraphic" in2="BackgroundImageFix" result="shape"/>
<feColorMatrix in="SourceAlpha" type="matrix" values="0 0 0 0 0 0 0 0 0 0 0 0 0 0 0 0 0 0 127 0" result="hardAlpha"/>
<feOffset dy="1"/>
<feComposite in2="hardAlpha" operator="arithmetic" k2="-1" k3="1"/>
<feColorMatrix type="matrix" values="0 0 0 0 0.315972 0 0 0 0 0.315972 0 0 0 0 0.433333 0 0 0 1 0"/>
<feBlend mode="normal" in2="shape" result="effect1_innerShadow_686_3835"/>
</filter>
<filter id="filter6_i_686_3835" x="210" y="52" width="5" height="5" filterUnits="userSpaceOnUse" color-interpolation-filters="sRGB">
<feFlood flood-opacity="0" result="BackgroundImageFix"/>
<feBlend mode="normal" in="SourceGraphic" in2="BackgroundImageFix" result="shape"/>
<feColorMatrix in="SourceAlpha" type="matrix" values="0 0 0 0 0 0 0 0 0 0 0 0 0 0 0 0 0 0 127 0" result="hardAlpha"/>
<feOffset dy="1"/>
<feComposite in2="hardAlpha" operator="arithmetic" k2="-1" k3="1"/>
<feColorMatrix type="matrix" values="0 0 0 0 0.315972 0 0 0 0 0.315972 0 0 0 0 0.433333 0 0 0 1 0"/>
<feBlend mode="normal" in2="shape" result="effect1_innerShadow_686_3835"/>
</filter>
<filter id="filter7_i_686_3835" x="231" y="52" width="5" height="5" filterUnits="userSpaceOnUse" color-interpolation-filters="sRGB">
<feFlood flood-opacity="0" result="BackgroundImageFix"/>
<feBlend mode="normal" in="SourceGraphic" in2="BackgroundImageFix" result="shape"/>
<feColorMatrix in="SourceAlpha" type="matrix" values="0 0 0 0 0 0 0 0 0 0 0 0 0 0 0 0 0 0 127 0" result="hardAlpha"/>
<feOffset dy="1"/>
<feComposite in2="hardAlpha" operator="arithmetic" k2="-1" k3="1"/>
<feColorMatrix type="matrix" values="0 0 0 0 0.315972 0 0 0 0 0.315972 0 0 0 0 0.433333 0 0 0 1 0"/>
<feBlend mode="normal" in2="shape" result="effect1_innerShadow_686_3835"/>
</filter>
<filter id="filter8_i_686_3835" x="252" y="52" width="5" height="5" filterUnits="userSpaceOnUse" color-interpolation-filters="sRGB">
<feFlood flood-opacity="0" result="BackgroundImageFix"/>
<feBlend mode="normal" in="SourceGraphic" in2="BackgroundImageFix" result="shape"/>
<feColorMatrix in="SourceAlpha" type="matrix" values="0 0 0 0 0 0 0 0 0 0 0 0 0 0 0 0 0 0 127 0" result="hardAlpha"/>
<feOffset dy="1"/>
<feComposite in2="hardAlpha" operator="arithmetic" k2="-1" k3="1"/>
<feColorMatrix type="matrix" values="0 0 0 0 0.315972 0 0 0 0 0.315972 0 0 0 0 0.433333 0 0 0 1 0"/>
<feBlend mode="normal" in2="shape" result="effect1_innerShadow_686_3835"/>
</filter>
<filter id="filter9_i_686_3835" x="273" y="52" width="5" height="5" filterUnits="userSpaceOnUse" color-interpolation-filters="sRGB">
<feFlood flood-opacity="0" result="BackgroundImageFix"/>
<feBlend mode="normal" in="SourceGraphic" in2="BackgroundImageFix" result="shape"/>
<feColorMatrix in="SourceAlpha" type="matrix" values="0 0 0 0 0 0 0 0 0 0 0 0 0 0 0 0 0 0 127 0" result="hardAlpha"/>
<feOffset dy="1"/>
<feComposite in2="hardAlpha" operator="arithmetic" k2="-1" k3="1"/>
<feColorMatrix type="matrix" values="0 0 0 0 0.315972 0 0 0 0 0.315972 0 0 0 0 0.433333 0 0 0 1 0"/>
<feBlend mode="normal" in2="shape" result="effect1_innerShadow_686_3835"/>
</filter>
<filter id="filter10_i_686_3835" x="294" y="52" width="5" height="5" filterUnits="userSpaceOnUse" color-interpolation-filters="sRGB">
<feFlood flood-opacity="0" result="BackgroundImageFix"/>
<feBlend mode="normal" in="SourceGraphic" in2="BackgroundImageFix" result="shape"/>
<feColorMatrix in="SourceAlpha" type="matrix" values="0 0 0 0 0 0 0 0 0 0 0 0 0 0 0 0 0 0 127 0" result="hardAlpha"/>
<feOffset dy="1"/>
<feComposite in2="hardAlpha" operator="arithmetic" k2="-1" k3="1"/>
<feColorMatrix type="matrix" values="0 0 0 0 0.315972 0 0 0 0 0.315972 0 0 0 0 0.433333 0 0 0 1 0"/>
<feBlend mode="normal" in2="shape" result="effect1_innerShadow_686_3835"/>
</filter>
<filter id="filter11_i_686_3835" x="315" y="52" width="5" height="5" filterUnits="userSpaceOnUse" color-interpolation-filters="sRGB">
<feFlood flood-opacity="0" result="BackgroundImageFix"/>
<feBlend mode="normal" in="SourceGraphic" in2="BackgroundImageFix" result="shape"/>
<feColorMatrix in="SourceAlpha" type="matrix" values="0 0 0 0 0 0 0 0 0 0 0 0 0 0 0 0 0 0 127 0" result="hardAlpha"/>
<feOffset dy="1"/>
<feComposite in2="hardAlpha" operator="arithmetic" k2="-1" k3="1"/>
<feColorMatrix type="matrix" values="0 0 0 0 0.315972 0 0 0 0 0.315972 0 0 0 0 0.433333 0 0 0 1 0"/>
<feBlend mode="normal" in2="shape" result="effect1_innerShadow_686_3835"/>
</filter>
<filter id="filter12_i_686_3835" x="133" y="77.6669" width="243.158" height="165.368" filterUnits="userSpaceOnUse" color-interpolation-filters="sRGB">
<feFlood flood-opacity="0" result="BackgroundImageFix"/>
<feBlend mode="normal" in="SourceGraphic" in2="BackgroundImageFix" result="shape"/>
<feColorMatrix in="SourceAlpha" type="matrix" values="0 0 0 0 0 0 0 0 0 0 0 0 0 0 0 0 0 0 127 0" result="hardAlpha"/>
<feOffset dy="4"/>
<feGaussianBlur stdDeviation="2"/>
<feComposite in2="hardAlpha" operator="arithmetic" k2="-1" k3="1"/>
<feColorMatrix type="matrix" values="0 0 0 0 0.0984028 0 0 0 0 0.121399 0 0 0 0 0.216667 0 0 0 0.5 0"/>
<feBlend mode="normal" in2="shape" result="effect1_innerShadow_686_3835"/>
</filter>
<filter id="filter13_i_686_3835" x="74" y="83" width="42" height="87" filterUnits="userSpaceOnUse" color-interpolation-filters="sRGB">
<feFlood flood-opacity="0" result="BackgroundImageFix"/>
<feBlend mode="normal" in="SourceGraphic" in2="BackgroundImageFix" result="shape"/>
<feColorMatrix in="SourceAlpha" type="matrix" values="0 0 0 0 0 0 0 0 0 0 0 0 0 0 0 0 0 0 127 0" result="hardAlpha"/>
<feOffset dy="4"/>
<feGaussianBlur stdDeviation="2"/>
<feComposite in2="hardAlpha" operator="arithmetic" k2="-1" k3="1"/>
<feColorMatrix type="matrix" values="0 0 0 0 0 0 0 0 0 0 0 0 0 0 0 0 0 0 0.2 0"/>
<feBlend mode="normal" in2="shape" result="effect1_innerShadow_686_3835"/>
</filter>
<filter id="filter14_i_686_3835" x="303" y="158" width="5" height="5" filterUnits="userSpaceOnUse" color-interpolation-filters="sRGB">
<feFlood flood-opacity="0" result="BackgroundImageFix"/>
<feBlend mode="normal" in="SourceGraphic" in2="BackgroundImageFix" result="shape"/>
<feColorMatrix in="SourceAlpha" type="matrix" values="0 0 0 0 0 0 0 0 0 0 0 0 0 0 0 0 0 0 127 0" result="hardAlpha"/>
<feOffset dy="1"/>
<feComposite in2="hardAlpha" operator="arithmetic" k2="-1" k3="1"/>
<feColorMatrix type="matrix" values="0 0 0 0 0.315972 0 0 0 0 0.315972 0 0 0 0 0.433333 0 0 0 1 0"/>
<feBlend mode="normal" in2="shape" result="effect1_innerShadow_686_3835"/>
</filter>
<filter id="filter15_i_686_3835" x="313" y="158" width="5" height="5" filterUnits="userSpaceOnUse" color-interpolation-filters="sRGB">
<feFlood flood-opacity="0" result="BackgroundImageFix"/>
<feBlend mode="normal" in="SourceGraphic" in2="BackgroundImageFix" result="shape"/>
<feColorMatrix in="SourceAlpha" type="matrix" values="0 0 0 0 0 0 0 0 0 0 0 0 0 0 0 0 0 0 127 0" result="hardAlpha"/>
<feOffset dy="1"/>
<feComposite in2="hardAlpha" operator="arithmetic" k2="-1" k3="1"/>
<feColorMatrix type="matrix" values="0 0 0 0 0.315972 0 0 0 0 0.315972 0 0 0 0 0.433333 0 0 0 1 0"/>
<feBlend mode="normal" in2="shape" result="effect1_innerShadow_686_3835"/>
</filter>
<filter id="filter16_i_686_3835" x="319.5" y="2.66327" width="127.024" height="178.149" filterUnits="userSpaceOnUse" color-interpolation-filters="sRGB">
<feFlood flood-opacity="0" result="BackgroundImageFix"/>
<feBlend mode="normal" in="SourceGraphic" in2="BackgroundImageFix" result="shape"/>
<feColorMatrix in="SourceAlpha" type="matrix" values="0 0 0 0 0 0 0 0 0 0 0 0 0 0 0 0 0 0 127 0" result="hardAlpha"/>
<feOffset dy="2"/>
<feComposite in2="hardAlpha" operator="arithmetic" k2="-1" k3="1"/>
<feColorMatrix type="matrix" values="0 0 0 0 1 0 0 0 0 1 0 0 0 0 1 0 0 0 0.5 0"/>
<feBlend mode="overlay" in2="shape" result="effect1_innerShadow_686_3835"/>
</filter>
<filter id="filter17_i_686_3835" x="333" y="158" width="5" height="5" filterUnits="userSpaceOnUse" color-interpolation-filters="sRGB">
<feFlood flood-opacity="0" result="BackgroundImageFix"/>
<feBlend mode="normal" in="SourceGraphic" in2="BackgroundImageFix" result="shape"/>
<feColorMatrix in="SourceAlpha" type="matrix" values="0 0 0 0 0 0 0 0 0 0 0 0 0 0 0 0 0 0 127 0" result="hardAlpha"/>
<feOffset dy="1"/>
<feComposite in2="hardAlpha" operator="arithmetic" k2="-1" k3="1"/>
<feColorMatrix type="matrix" values="0 0 0 0 0.315972 0 0 0 0 0.315972 0 0 0 0 0.433333 0 0 0 1 0"/>
<feBlend mode="normal" in2="shape" result="effect1_innerShadow_686_3835"/>
</filter>
<filter id="filter18_f_686_3835" x="92" y="98" width="10" height="10" filterUnits="userSpaceOnUse" color-interpolation-filters="sRGB">
<feFlood flood-opacity="0" result="BackgroundImageFix"/>
<feBlend mode="normal" in="SourceGraphic" in2="BackgroundImageFix" result="shape"/>
<feGaussianBlur stdDeviation="1.5" result="effect1_foregroundBlur_686_3835"/>
</filter>
<filter id="filter19_f_686_3835" x="92" y="137" width="10" height="10" filterUnits="userSpaceOnUse" color-interpolation-filters="sRGB">
<feFlood flood-opacity="0" result="BackgroundImageFix"/>
<feBlend mode="normal" in="SourceGraphic" in2="BackgroundImageFix" result="shape"/>
<feGaussianBlur stdDeviation="1.5" result="effect1_foregroundBlur_686_3835"/>
</filter>
<filter id="filter20_i_686_3835" x="159" y="100" width="192" height="44" filterUnits="userSpaceOnUse" color-interpolation-filters="sRGB">
<feFlood flood-opacity="0" result="BackgroundImageFix"/>
<feBlend mode="normal" in="SourceGraphic" in2="BackgroundImageFix" result="shape"/>
<feColorMatrix in="SourceAlpha" type="matrix" values="0 0 0 0 0 0 0 0 0 0 0 0 0 0 0 0 0 0 127 0" result="hardAlpha"/>
<feOffset/>
<feGaussianBlur stdDeviation="5"/>
<feComposite in2="hardAlpha" operator="arithmetic" k2="-1" k3="1"/>
<feColorMatrix type="matrix" values="0 0 0 0 0.337255 0 0 0 0 0.415686 0 0 0 0 0.662745 0 0 0 0.1 0"/>
<feBlend mode="normal" in2="shape" result="effect1_innerShadow_686_3835"/>
</filter>
<linearGradient id="paint0_linear_686_3835" x1="236" y1="0" x2="236" y2="226" gradientUnits="userSpaceOnUse">
<stop offset="0.625" stop-color="#D9D9D9"/>
<stop offset="0.942708" stop-color="#D9D9D9" stop-opacity="0"/>
</linearGradient>
<linearGradient id="paint1_linear_686_3835" x1="243.311" y1="232.864" x2="463.02" y2="4.7399" gradientUnits="userSpaceOnUse">
<stop stop-color="#333961"/>
<stop offset="1" stop-color="#2E3461"/>
</linearGradient>
<linearGradient id="paint2_linear_686_3835" x1="165" y1="18.4998" x2="174.5" y2="27.4998" gradientUnits="userSpaceOnUse">
<stop stop-color="#FF5C30"/>
<stop offset="1" stop-color="#FF5C30" stop-opacity="0"/>
</linearGradient>
<linearGradient id="paint3_linear_686_3835" x1="4" y1="171" x2="42" y2="170" gradientUnits="userSpaceOnUse">
<stop stop-color="#262F52"/>
<stop offset="0.625" stop-color="#34406D"/>
<stop offset="1" stop-color="#34406D"/>
</linearGradient>
<linearGradient id="paint4_linear_686_3835" x1="23" y1="131" x2="23" y2="147" gradientUnits="userSpaceOnUse">
<stop stop-color="#455489"/>
<stop offset="1" stop-color="#2A355C"/>
</linearGradient>
<linearGradient id="paint5_linear_686_3835" x1="376" y1="158" x2="247.792" y2="36.6854" gradientUnits="userSpaceOnUse">
<stop stop-color="#252F50"/>
<stop offset="1" stop-color="#576CB0"/>
</linearGradient>
<linearGradient id="paint6_linear_686_3835" x1="62.5" y1="175" x2="4.0068" y2="172.818" gradientUnits="userSpaceOnUse">
<stop stop-color="#576CB0"/>
<stop offset="1" stop-color="#576CB0" stop-opacity="0"/>
</linearGradient>
<linearGradient id="paint7_linear_686_3835" x1="62.5" y1="183" x2="4.0068" y2="180.818" gradientUnits="userSpaceOnUse">
<stop stop-color="#576CB0"/>
<stop offset="1" stop-color="#576CB0" stop-opacity="0"/>
</linearGradient>
<linearGradient id="paint8_linear_686_3835" x1="62.5" y1="190" x2="4.0068" y2="187.818" gradientUnits="userSpaceOnUse">
<stop stop-color="#576CB0"/>
<stop offset="1" stop-color="#576CB0" stop-opacity="0"/>
</linearGradient>
<linearGradient id="paint9_linear_686_3835" x1="62.5" y1="198" x2="4.0068" y2="195.818" gradientUnits="userSpaceOnUse">
<stop stop-color="#576CB0"/>
<stop offset="1" stop-color="#576CB0" stop-opacity="0"/>
</linearGradient>
<linearGradient id="paint10_linear_686_3835" x1="62.5" y1="205" x2="4.0068" y2="202.818" gradientUnits="userSpaceOnUse">
<stop stop-color="#576CB0"/>
<stop offset="1" stop-color="#576CB0" stop-opacity="0"/>
</linearGradient>
<linearGradient id="paint11_linear_686_3835" x1="62.5" y1="212" x2="4.0068" y2="209.818" gradientUnits="userSpaceOnUse">
<stop stop-color="#576CB0"/>
<stop offset="1" stop-color="#576CB0" stop-opacity="0"/>
</linearGradient>
<linearGradient id="paint12_linear_686_3835" x1="62.5" y1="220" x2="4.0068" y2="217.818" gradientUnits="userSpaceOnUse">
<stop stop-color="#576CB0"/>
<stop offset="1" stop-color="#576CB0" stop-opacity="0"/>
</linearGradient>
<linearGradient id="paint13_linear_686_3835" x1="336.5" y1="29.5" x2="319" y2="28.5" gradientUnits="userSpaceOnUse">
<stop stop-color="#4E70E9"/>
<stop offset="1" stop-color="#4E70E9" stop-opacity="0"/>
</linearGradient>
<linearGradient id="paint14_linear_686_3835" x1="351" y1="122" x2="170.534" y2="167.623" gradientUnits="userSpaceOnUse">
<stop offset="0.0001" stop-color="#252F50" stop-opacity="0.2"/>
<stop offset="0.510417" stop-color="#252F50"/>
<stop offset="1" stop-color="#252F50" stop-opacity="0.2"/>
</linearGradient>
<linearGradient id="paint15_linear_686_3835" x1="351" y1="122" x2="170.534" y2="167.623" gradientUnits="userSpaceOnUse">
<stop offset="0.0001" stop-color="#252F50" stop-opacity="0.2"/>
<stop offset="0.510417" stop-color="#252F50"/>
<stop offset="1" stop-color="#252F50" stop-opacity="0.2"/>
</linearGradient>
<linearGradient id="paint16_linear_686_3835" x1="351" y1="122" x2="170.534" y2="167.623" gradientUnits="userSpaceOnUse">
<stop offset="0.0001" stop-color="#252F50" stop-opacity="0.2"/>
<stop offset="0.510417" stop-color="#252F50"/>
<stop offset="1" stop-color="#252F50" stop-opacity="0.2"/>
</linearGradient>
<linearGradient id="paint17_linear_686_3835" x1="351" y1="122" x2="170.534" y2="167.623" gradientUnits="userSpaceOnUse">
<stop offset="0.0001" stop-color="#252F50" stop-opacity="0.2"/>
<stop offset="0.510417" stop-color="#252F50"/>
<stop offset="1" stop-color="#252F50" stop-opacity="0.2"/>
</linearGradient>
<linearGradient id="paint18_linear_686_3835" x1="351" y1="122" x2="170.534" y2="167.623" gradientUnits="userSpaceOnUse">
<stop offset="0.0001" stop-color="#252F50" stop-opacity="0.2"/>
<stop offset="0.510417" stop-color="#252F50"/>
<stop offset="1" stop-color="#252F50" stop-opacity="0.2"/>
</linearGradient>
<linearGradient id="paint19_linear_686_3835" x1="351" y1="122" x2="170.534" y2="167.623" gradientUnits="userSpaceOnUse">
<stop offset="0.0001" stop-color="#252F50" stop-opacity="0.2"/>
<stop offset="0.510417" stop-color="#252F50"/>
<stop offset="1" stop-color="#252F50" stop-opacity="0.2"/>
</linearGradient>
<linearGradient id="paint20_linear_686_3835" x1="351" y1="122" x2="170.534" y2="167.623" gradientUnits="userSpaceOnUse">
<stop offset="0.0001" stop-color="#252F50" stop-opacity="0.2"/>
<stop offset="0.510417" stop-color="#252F50"/>
<stop offset="1" stop-color="#252F50" stop-opacity="0.2"/>
</linearGradient>
<linearGradient id="paint21_linear_686_3835" x1="351" y1="122" x2="170.534" y2="167.623" gradientUnits="userSpaceOnUse">
<stop offset="0.0001" stop-color="#252F50" stop-opacity="0.2"/>
<stop offset="0.510417" stop-color="#252F50"/>
<stop offset="1" stop-color="#252F50" stop-opacity="0.2"/>
</linearGradient>
<linearGradient id="paint22_linear_686_3835" x1="351" y1="122" x2="170.534" y2="167.623" gradientUnits="userSpaceOnUse">
<stop offset="0.0001" stop-color="#252F50" stop-opacity="0.2"/>
<stop offset="0.510417" stop-color="#252F50"/>
<stop offset="1" stop-color="#252F50" stop-opacity="0.2"/>
</linearGradient>
<linearGradient id="paint23_linear_686_3835" x1="351" y1="122" x2="170.534" y2="167.623" gradientUnits="userSpaceOnUse">
<stop offset="0.0001" stop-color="#252F50" stop-opacity="0.2"/>
<stop offset="0.510417" stop-color="#252F50"/>
<stop offset="1" stop-color="#252F50" stop-opacity="0.2"/>
</linearGradient>
<linearGradient id="paint24_linear_686_3835" x1="351" y1="122" x2="170.534" y2="167.623" gradientUnits="userSpaceOnUse">
<stop offset="0.0001" stop-color="#252F50" stop-opacity="0.2"/>
<stop offset="0.510417" stop-color="#252F50"/>
<stop offset="1" stop-color="#252F50" stop-opacity="0.2"/>
</linearGradient>
<linearGradient id="paint25_linear_686_3835" x1="351" y1="122" x2="170.534" y2="167.623" gradientUnits="userSpaceOnUse">
<stop offset="0.0001" stop-color="#252F50" stop-opacity="0.2"/>
<stop offset="0.510417" stop-color="#252F50"/>
<stop offset="1" stop-color="#252F50" stop-opacity="0.2"/>
</linearGradient>
<linearGradient id="paint26_linear_686_3835" x1="351" y1="122" x2="170.534" y2="167.623" gradientUnits="userSpaceOnUse">
<stop offset="0.0001" stop-color="#252F50" stop-opacity="0.2"/>
<stop offset="0.510417" stop-color="#252F50"/>
<stop offset="1" stop-color="#252F50" stop-opacity="0.2"/>
</linearGradient>
<linearGradient id="paint27_linear_686_3835" x1="351" y1="122" x2="170.534" y2="167.623" gradientUnits="userSpaceOnUse">
<stop offset="0.0001" stop-color="#252F50" stop-opacity="0.2"/>
<stop offset="0.510417" stop-color="#252F50"/>
<stop offset="1" stop-color="#252F50" stop-opacity="0.2"/>
</linearGradient>
<linearGradient id="paint28_linear_686_3835" x1="351" y1="122" x2="170.534" y2="167.623" gradientUnits="userSpaceOnUse">
<stop offset="0.0001" stop-color="#252F50" stop-opacity="0.2"/>
<stop offset="0.510417" stop-color="#252F50"/>
<stop offset="1" stop-color="#252F50" stop-opacity="0.2"/>
</linearGradient>
<linearGradient id="paint29_linear_686_3835" x1="351" y1="122" x2="170.534" y2="167.623" gradientUnits="userSpaceOnUse">
<stop offset="0.0001" stop-color="#252F50" stop-opacity="0.2"/>
<stop offset="0.510417" stop-color="#252F50"/>
<stop offset="1" stop-color="#252F50" stop-opacity="0.2"/>
</linearGradient>
<linearGradient id="paint30_linear_686_3835" x1="351" y1="122" x2="170.534" y2="167.623" gradientUnits="userSpaceOnUse">
<stop offset="0.0001" stop-color="#252F50" stop-opacity="0.2"/>
<stop offset="0.510417" stop-color="#252F50"/>
<stop offset="1" stop-color="#252F50" stop-opacity="0.2"/>
</linearGradient>
<linearGradient id="paint31_linear_686_3835" x1="351" y1="122" x2="170.534" y2="167.623" gradientUnits="userSpaceOnUse">
<stop offset="0.0001" stop-color="#252F50" stop-opacity="0.2"/>
<stop offset="0.510417" stop-color="#252F50"/>
<stop offset="1" stop-color="#252F50" stop-opacity="0.2"/>
</linearGradient>
<linearGradient id="paint32_linear_686_3835" x1="351" y1="122" x2="170.534" y2="167.623" gradientUnits="userSpaceOnUse">
<stop offset="0.0001" stop-color="#252F50" stop-opacity="0.2"/>
<stop offset="0.510417" stop-color="#252F50"/>
<stop offset="1" stop-color="#252F50" stop-opacity="0.2"/>
</linearGradient>
<linearGradient id="paint33_linear_686_3835" x1="351" y1="122" x2="170.534" y2="167.623" gradientUnits="userSpaceOnUse">
<stop offset="0.0001" stop-color="#252F50" stop-opacity="0.2"/>
<stop offset="0.510417" stop-color="#252F50"/>
<stop offset="1" stop-color="#252F50" stop-opacity="0.2"/>
</linearGradient>
<linearGradient id="paint34_linear_686_3835" x1="351" y1="122" x2="170.534" y2="167.623" gradientUnits="userSpaceOnUse">
<stop offset="0.0001" stop-color="#252F50" stop-opacity="0.2"/>
<stop offset="0.510417" stop-color="#252F50"/>
<stop offset="1" stop-color="#252F50" stop-opacity="0.2"/>
</linearGradient>
<clipPath id="clip0_686_3835">
<rect width="472" height="226" fill="white"/>
</clipPath>
<clipPath id="clip1_686_3835">
<rect width="468" height="68" fill="white" transform="translate(4 171)"/>
</clipPath>
<clipPath id="clip2_686_3835">
<rect x="159" y="101" width="192" height="42" rx="2" fill="white"/>
</clipPath>
</defs>
</svg>
