<svg width="20" height="15" viewBox="0 0 20 15" fill="none" xmlns="http://www.w3.org/2000/svg">
<rect width="20" height="15" rx="3" fill="#F93939"/>
<path fill-rule="evenodd" clip-rule="evenodd" d="M13.3353 8.652L12.2286 9.262L12.44 7.969L11.5448 7.052L12.7829 6.862L13.3353 5.686L13.8877 6.863L15.1258 7.053L14.2305 7.968L14.4419 9.261" fill="white"/>
<path fill-rule="evenodd" clip-rule="evenodd" d="M9.04757 11C10.8885 11 12.3809 9.433 12.3809 7.5C12.3809 5.567 10.8885 4 9.04757 4C7.20661 4 5.71423 5.567 5.71423 7.5C5.71423 9.433 7.20661 11 9.04757 11ZM9.99995 10C11.3142 10 12.3809 8.88 12.3809 7.5C12.3809 6.12 11.3142 5 9.99995 5C8.68566 5 7.619 6.12 7.619 7.5C7.619 8.88 8.68566 10 9.99995 10Z" fill="white"/>
</svg>
