<svg width="20" height="15" viewBox="0 0 20 15" fill="none" xmlns="http://www.w3.org/2000/svg">
<g clip-path="url(#clip0_730_13465)">
<rect width="20" height="15" rx="3" fill="white"/>
<path fill-rule="evenodd" clip-rule="evenodd" d="M0 0H8.57143V7H0V0Z" fill="#1A47B8"/>
<path fill-rule="evenodd" clip-rule="evenodd" d="M8.57143 0V1H20V0H8.57143ZM8.57143 2V3H20V2H8.57143ZM8.57143 4V5H20V4H8.57143ZM8.57143 6V7H20V6H8.57143ZM0 8V9H20V8H0ZM0 10V11H20V10H0ZM0 12V13H20V12H0ZM0 14V15H20V14H0Z" fill="#F93939"/>
<path fill-rule="evenodd" clip-rule="evenodd" d="M0.952393 1V2H1.90477V1H0.952393ZM2.85715 1V2H3.80954V1H2.85715ZM4.76192 1V2H5.7143V1H4.76192ZM6.66668 1V2H7.61906V1H6.66668ZM5.7143 2V3H6.66668V2H5.7143ZM3.80954 2V3H4.76192V2H3.80954ZM1.90477 2V3H2.85715V2H1.90477ZM0.952393 3V4H1.90477V3H0.952393ZM2.85715 3V4H3.80954V3H2.85715ZM4.76192 3V4H5.7143V3H4.76192ZM6.66668 3V4H7.61906V3H6.66668ZM0.952393 5V6H1.90477V5H0.952393ZM2.85715 5V6H3.80954V5H2.85715ZM4.76192 5V6H5.7143V5H4.76192ZM6.66668 5V6H7.61906V5H6.66668ZM5.7143 4V5H6.66668V4H5.7143ZM3.80954 4V5H4.76192V4H3.80954ZM1.90477 4V5H2.85715V4H1.90477Z" fill="white"/>
</g>
<defs>
<clipPath id="clip0_730_13465">
<rect width="20" height="15" rx="3" fill="white"/>
</clipPath>
</defs>
</svg>
