<svg width="230" height="180" viewBox="0 0 230 180" fill="none" xmlns="http://www.w3.org/2000/svg">
<g filter="url(#filter0_dddddddi_736_3246)">
<path d="M169.485 82.8947C170.215 83.4035 171.038 84.0531 171.299 84.3562C171.79 84.9013 172.161 86.1832 171.935 86.5754C171.756 86.8858 170.999 92.8762 170.987 94.0674C170.969 95.4949 171.185 95.8376 172.429 96.5125L173.477 97.0742L173.064 98.4695L172.667 99.8743L199.986 115.691C222.158 128.535 227.335 131.568 227.427 131.861C227.508 132.06 227.541 132.645 227.485 133.158C227.415 134.033 227.262 134.336 224.918 138.321C221.642 143.881 216.827 151.58 215.353 153.605C213.989 155.476 213.529 155.821 212.236 155.946C210.382 156.139 208.827 154.87 202.965 148.305C201.111 146.233 198.964 143.838 198.196 142.981C197.427 142.123 195.965 140.429 194.931 139.201C193.888 137.988 192.007 135.813 190.74 134.384C189.473 132.956 187.236 130.378 185.757 128.675C184.288 126.955 182.525 124.913 181.846 124.129C180.304 122.346 177.442 119.604 175.556 118.079C174.765 117.448 173.249 116.224 172.202 115.359C169.663 113.304 166.888 111.506 165.734 111.166C164.446 110.793 163.013 110.859 161.876 111.357C161.034 111.721 160.775 111.942 160.36 112.661C160.087 113.135 159.734 114.086 159.59 114.788C159.344 115.931 159.423 116.587 160.507 122.332C161.154 125.778 161.963 130.036 162.332 131.775C162.685 133.503 162.896 135.063 162.802 135.226C162.481 135.782 161.493 135.756 158.276 135.141C151.833 133.883 150.482 133.582 149.91 133.252C149.404 132.96 148.805 132.222 148.784 131.883C148.767 131.459 149.316 130.621 149.936 130.151L150.52 129.705L150.51 127.345C150.495 126.051 150.478 122.948 150.452 120.427L150.395 115.884L149.757 115.516C149.3 115.252 149.082 115.213 148.979 115.393C148.865 115.589 148.608 115.506 147.775 115.025C146.844 114.487 146.676 114.325 146.524 113.758L146.344 113.088L141.96 110.644C139.53 109.306 137.244 108.095 136.863 107.962L136.192 107.728L134.937 109.901C133.909 111.682 129.427 118.049 128.394 119.196C128.242 119.347 127.769 119.902 127.315 120.425C125.614 122.427 122.17 125.712 120.231 127.185C119.496 127.741 119.165 127.899 118.997 127.736C118.869 127.619 116.375 125.22 113.432 122.432C110.498 119.626 108.011 117.254 107.899 117.146C107.646 116.869 108.425 115.859 109.759 114.755C111.112 113.619 113.628 110.997 116.756 107.466C118.354 105.643 121.219 101.85 122.724 99.5817L123.914 97.7849L123.506 97.397C123.283 97.1806 123.006 96.8681 122.873 96.6827C122.68 96.3752 122.725 96.3356 123.388 96.1303L124.11 95.9369L126.039 92.5192C127.488 89.9348 127.948 89.0241 127.879 88.7664C127.824 88.5602 127.353 88.0923 126.836 87.7062C125.937 87.0352 125.733 86.6341 125.991 86.1508C126.047 86.0527 125.924 85.8509 125.695 85.7188C125.336 85.5113 125.249 85.5483 124.947 86.0712C124.711 86.4798 124.552 86.6054 124.442 86.4552C124.363 86.3659 123.76 85.7126 123.101 85.0052C122.458 84.3072 121.971 83.6778 122.019 83.5961C122.075 83.4981 121.933 83.3289 121.704 83.1969C121.361 82.9987 121.249 83.0427 121.013 83.4512C120.853 83.729 120.483 84.1042 120.202 84.2901C119.059 85.0246 121.449 86.3178 87.8531 66.9209C57.6392 49.4769 57.296 49.2788 57.1579 48.7633C57.0819 48.4798 57.0909 48.0492 57.1481 47.799C57.2646 47.4087 57.2112 47.3125 56.7976 47.1609C56.2834 46.9947 56.2427 46.688 56.4934 45.0461L56.5684 44.5012L54.5748 43.3502C53.4637 42.7086 52.2588 42.0784 51.8874 41.9293L51.2167 41.6946L50.5469 42.8548C49.4808 44.7013 49.4198 44.7315 48.2923 44.0805C47.4099 43.571 47.3471 43.4912 47.5263 43.1807C47.7056 42.8702 47.6591 42.7998 47.04 42.5513C46.4794 42.3148 46.3279 42.162 46.22 41.7075C46.0592 41.0047 46.5052 40.1945 47.1049 40.0614C47.3627 39.9924 47.8045 40.095 48.0987 40.2648C48.4418 40.4629 48.6266 40.4825 48.611 40.3209C48.6142 40.1267 45.4372 38.2706 36.4353 33.1824L24.2608 26.3059L23.553 26.5509C22.7162 26.8303 22.527 26.7429 22.4901 26.0898L22.4526 25.5888L22.0489 25.835C21.5397 26.1511 20.8345 25.7875 20.9843 25.2639C21.1152 24.773 20.625 24.49 20.2653 24.8488C19.9408 25.1844 19.3896 24.9315 19.4595 24.4708C19.5099 24.1948 19.1856 23.964 16.837 22.6734L14.152 21.2104L14.3987 20.4813C14.5245 20.0746 15.0202 19.1407 15.4799 18.3821L16.3309 17.0214L19.0252 18.4681C20.851 19.4568 21.8227 19.8871 22.0452 19.8413C22.4928 19.7076 22.9315 20.0044 22.8761 20.3646C22.8112 20.7411 23.2197 20.9769 23.5297 20.7419C23.8328 20.4812 24.4116 20.8371 24.5591 21.3363C24.6558 21.6971 24.7049 21.7255 25.082 21.6382C25.6723 21.5215 25.8986 21.6957 26.0335 22.4054L26.1477 23.0378L38.2713 29.7759C49.8136 36.2002 50.4112 36.5235 50.901 36.3922C51.3813 36.2774 51.5297 36.058 54.5958 30.7473C58.0393 24.783 58.0299 24.7993 59.0255 25.1127C60.2361 25.5066 60.8792 27.1851 61.7363 32.3425C61.8661 33.1365 62.1109 34.4107 62.269 35.1557C62.4272 35.9006 62.5092 36.9284 62.4626 37.4244C62.3673 38.3062 62.3743 38.332 62.8244 38.1562C63.0752 38.0613 63.4945 37.9766 63.7309 37.9823C64.379 38.0297 67.289 39.4047 73.6261 42.6931C76.6592 44.27 81.3504 46.6734 84.0404 48.0521C91.1016 51.6714 95.8649 54.1383 100.969 56.8454C106.893 59.9822 113.064 63.2183 117.115 65.2959C124.151 68.9221 126.891 70.4391 127.154 70.8522C127.47 71.3615 127.428 72.3396 127.051 72.9932C126.815 73.4017 126.833 73.5212 127.16 73.7098C127.372 73.8325 127.632 73.8734 127.721 73.7943C127.865 73.6591 129.738 73.9998 131.126 74.3875C131.559 74.5064 131.563 74.5743 131.291 75.1582C131.032 75.6836 131.038 75.8615 131.313 76.064C131.661 76.33 131.661 76.33 132.963 74.075C134.491 71.4278 135.25 70.6027 136.624 70.1103C138.429 69.4748 138.13 69.3892 152.26 75.3686C159.343 78.3467 165.65 81.0077 166.295 81.2493C166.93 81.5072 167.608 81.7677 167.807 81.8388C168.005 81.9099 168.754 82.386 169.485 82.8947ZM58.538 29.9949C58.2426 30.1293 57.8615 30.5629 57.5218 31.1512L56.9747 32.0989L56.4027 31.7687L55.8308 31.4385L55.0666 32.7621C53.8873 34.8047 53.7806 34.6123 57.1304 36.5464C59.4834 37.9049 60.0346 38.1578 60.3697 38.068C61.3913 37.8081 61.4237 36.8463 60.5969 33.297C59.8109 30.0544 59.4949 29.5451 58.538 29.9949ZM54.4045 37.4563C54.2454 37.4299 54.0342 37.5694 53.9304 37.7491C53.7512 38.0596 53.8398 38.1325 56.0294 39.3967C57.9086 40.4817 58.3454 40.6685 58.4492 40.4888C58.7511 39.9659 58.2641 39.4886 56.4477 38.4835C55.4742 37.9432 54.5635 37.4828 54.4045 37.4563Z" fill="#232C4B"/>
</g>
<defs>
<filter id="filter0_dddddddi_736_3246" x="-77.938" y="-129.622" width="397.541" height="323.122" filterUnits="userSpaceOnUse" color-interpolation-filters="sRGB">
<feFlood flood-opacity="0" result="BackgroundImageFix"/>
<feColorMatrix in="SourceAlpha" type="matrix" values="0 0 0 0 0 0 0 0 0 0 0 0 0 0 0 0 0 0 127 0" result="hardAlpha"/>
<feOffset dy="-2.17263"/>
<feGaussianBlur stdDeviation="1.83378"/>
<feColorMatrix type="matrix" values="0 0 0 0 0.137255 0 0 0 0 0.172549 0 0 0 0 0.294118 0 0 0 0.239667 0"/>
<feBlend mode="normal" in2="BackgroundImageFix" result="effect1_dropShadow_736_3246"/>
<feColorMatrix in="SourceAlpha" type="matrix" values="0 0 0 0 0 0 0 0 0 0 0 0 0 0 0 0 0 0 127 0" result="hardAlpha"/>
<feOffset dy="-4.93639"/>
<feGaussianBlur stdDeviation="4.1665"/>
<feColorMatrix type="matrix" values="0 0 0 0 0.137255 0 0 0 0 0.172549 0 0 0 0 0.294118 0 0 0 0.348411 0"/>
<feBlend mode="normal" in2="effect1_dropShadow_736_3246" result="effect2_dropShadow_736_3246"/>
<feColorMatrix in="SourceAlpha" type="matrix" values="0 0 0 0 0 0 0 0 0 0 0 0 0 0 0 0 0 0 127 0" result="hardAlpha"/>
<feOffset dy="-8.59157"/>
<feGaussianBlur stdDeviation="7.2516"/>
<feColorMatrix type="matrix" values="0 0 0 0 0.137255 0 0 0 0 0.172549 0 0 0 0 0.294118 0 0 0 0.429105 0"/>
<feBlend mode="normal" in2="effect2_dropShadow_736_3246" result="effect3_dropShadow_736_3246"/>
<feColorMatrix in="SourceAlpha" type="matrix" values="0 0 0 0 0 0 0 0 0 0 0 0 0 0 0 0 0 0 127 0" result="hardAlpha"/>
<feOffset dy="-13.6485"/>
<feGaussianBlur stdDeviation="11.5198"/>
<feColorMatrix type="matrix" values="0 0 0 0 0.137255 0 0 0 0 0.172549 0 0 0 0 0.294118 0 0 0 0.5 0"/>
<feBlend mode="normal" in2="effect3_dropShadow_736_3246" result="effect4_dropShadow_736_3246"/>
<feColorMatrix in="SourceAlpha" type="matrix" values="0 0 0 0 0 0 0 0 0 0 0 0 0 0 0 0 0 0 127 0" result="hardAlpha"/>
<feOffset dy="-21.0586"/>
<feGaussianBlur stdDeviation="17.7742"/>
<feColorMatrix type="matrix" values="0 0 0 0 0.137255 0 0 0 0 0.172549 0 0 0 0 0.294118 0 0 0 0.570895 0"/>
<feBlend mode="normal" in2="effect4_dropShadow_736_3246" result="effect5_dropShadow_736_3246"/>
<feColorMatrix in="SourceAlpha" type="matrix" values="0 0 0 0 0 0 0 0 0 0 0 0 0 0 0 0 0 0 127 0" result="hardAlpha"/>
<feOffset dy="-32.8603"/>
<feGaussianBlur stdDeviation="27.7353"/>
<feColorMatrix type="matrix" values="0 0 0 0 0.137255 0 0 0 0 0.172549 0 0 0 0 0.294118 0 0 0 0.651589 0"/>
<feBlend mode="normal" in2="effect5_dropShadow_736_3246" result="effect6_dropShadow_736_3246"/>
<feColorMatrix in="SourceAlpha" type="matrix" values="0 0 0 0 0 0 0 0 0 0 0 0 0 0 0 0 0 0 127 0" result="hardAlpha"/>
<feOffset dy="-54.5532"/>
<feGaussianBlur stdDeviation="46.0449"/>
<feColorMatrix type="matrix" values="0 0 0 0 0.137255 0 0 0 0 0.172549 0 0 0 0 0.294118 0 0 0 0.760333 0"/>
<feBlend mode="normal" in2="effect6_dropShadow_736_3246" result="effect7_dropShadow_736_3246"/>
<feBlend mode="normal" in="SourceGraphic" in2="effect7_dropShadow_736_3246" result="shape"/>
<feColorMatrix in="SourceAlpha" type="matrix" values="0 0 0 0 0 0 0 0 0 0 0 0 0 0 0 0 0 0 127 0" result="hardAlpha"/>
<feOffset dy="4"/>
<feGaussianBlur stdDeviation="5"/>
<feComposite in2="hardAlpha" operator="arithmetic" k2="-1" k3="1"/>
<feColorMatrix type="matrix" values="0 0 0 0 0.592157 0 0 0 0 0.654902 0 0 0 0 0.858824 0 0 0 0.5 0"/>
<feBlend mode="normal" in2="shape" result="effect8_innerShadow_736_3246"/>
</filter>
</defs>
</svg>
