<svg width="107" height="132" viewBox="0 0 107 132" fill="none" xmlns="http://www.w3.org/2000/svg">
<g filter="url(#filter0_dddddddi_1001_6480)">
<path d="M37.4543 36.2977C36.8955 36.8584 34.7419 39.0678 35.0001 39.8172C35.2586 40.5664 37.8844 39.7237 38.669 39.8172C38.6805 39.8186 39.8669 40.0008 40.5934 40.7351C40.7372 40.8806 40.8662 41.0429 40.9812 41.2135C38.0579 41.7051 33.2931 42.8634 29.3419 45.5076C23.0714 49.7037 21.1343 57.9087 21.0551 58.256C20.8382 59.2037 20.1798 63.681 21.0551 64.0968C21.9233 64.5092 24.0221 60.8389 24.6166 60.0853C24.7626 59.9421 25.7334 59.07 27.6366 59.1465C29.1434 59.207 29.7698 59.8184 31.7094 61.929L31.7176 61.938C32.3021 62.574 32.9644 63.2945 33.7636 64.0968C35.0715 65.4099 36.4663 66.434 37.7326 67.2124C37.6699 67.2511 37.6078 67.2903 37.5462 67.3303C35.2884 68.7873 33.8299 72.9083 33.5604 73.7196C33.2537 74.6424 32.9301 78.3092 33.7636 78.8072C34.5765 79.2925 36.1137 76.6903 36.7737 76.0281C37.0559 75.892 38.3074 75.3924 41.1852 75.5575C42.6133 75.6394 44.3388 76.8275 46.1657 78.0855L46.1676 78.0868C48.8301 79.9211 51.8485 82 55.6407 82C58.354 82 63.4126 81.5969 67.5614 80.7766C71.437 80.0103 70.5035 78.8072 66.5528 78.8072C53.7045 78.8072 43.2883 68.3515 43.2883 55.4544C43.2883 42.5572 53.7045 32.1015 66.5528 32.1015C67.3206 32.1015 68.0798 32.1389 68.8285 32.2119C72.5615 32.5757 73.4921 31.7529 69.8459 30.8738C65.3748 29.7959 58.9387 29 54.0061 29C44.83 29 37.7513 35.9996 37.4543 36.2977Z" fill="url(#paint0_linear_1001_6480)"/>
</g>
<g filter="url(#filter1_i_1001_6480)">
<path d="M66.5528 34.9294C55.2603 34.9294 46.1055 44.119 46.1055 55.4544C46.1055 66.7898 55.2603 75.9794 66.5528 75.9794C77.8453 75.9794 87.0001 66.7898 87.0001 55.4544C87.0001 44.119 77.8453 34.9294 66.5528 34.9294ZM66.5528 72.5585C57.1424 72.5585 49.5134 64.9005 49.5134 55.4544C49.5134 46.0083 57.1424 38.3503 66.5528 38.3503C75.9632 38.3503 83.5922 46.0083 83.5922 55.4544C83.5922 64.9005 75.9632 72.5585 66.5528 72.5585Z" fill="url(#paint1_linear_1001_6480)"/>
<path d="M77.4007 44.574C77.3992 44.5725 77.398 44.5708 77.3965 44.5693C77.3949 44.5678 77.3933 44.5665 77.3918 44.5649C74.6169 41.782 70.785 40.0607 66.5528 40.0607C62.3216 40.0607 58.4906 41.7811 55.7159 44.5629C55.7137 44.5652 55.7111 44.567 55.7089 44.5694C55.7067 44.5717 55.7048 44.5742 55.7025 44.5764C52.9312 47.3616 51.2173 51.2072 51.2173 55.4544C51.2173 59.6926 52.9241 63.5306 55.685 66.3144C55.6931 66.3228 55.7 66.3319 55.7082 66.3402C55.7164 66.3484 55.7254 66.3553 55.7338 66.3634C58.5071 69.1348 62.3306 70.8481 66.5528 70.8481C70.7749 70.8481 74.5985 69.1348 77.3717 66.3634C77.3801 66.3553 77.3891 66.3484 77.3973 66.3402C77.4056 66.3319 77.4124 66.3228 77.4205 66.3144C80.1815 63.5306 81.8882 59.6926 81.8882 55.4544C81.8882 51.2061 80.1734 47.3595 77.4007 44.574ZM76.1055 62.6245L72.4239 58.9289C72.7442 58.3845 72.993 57.7925 73.1539 57.1649H78.3587C78.0696 59.193 77.2747 61.0574 76.1055 62.6245ZM54.7469 57.1648H59.9517C60.1127 57.7925 60.3613 58.3845 60.6818 58.9288L57 62.6245C55.8308 61.0574 55.036 59.193 54.7469 57.1648ZM57 48.2843L60.6817 51.9799C60.3613 52.5243 60.1126 53.1163 59.9516 53.7439H54.7468C55.036 51.7158 55.8308 49.8514 57 48.2843ZM68.9624 57.8732L68.9608 57.8751C68.3442 58.4931 67.493 58.8752 66.5527 58.8752C65.6124 58.8752 64.7612 58.4931 64.1446 57.8751L64.1429 57.8732L64.1411 57.8715C63.5254 57.2527 63.1448 56.3982 63.1448 55.4543C63.1448 54.5151 63.5219 53.6646 64.1322 53.0465C64.1359 53.0429 64.14 53.0398 64.1437 53.0361C64.1473 53.0325 64.1504 53.0284 64.154 53.0247C64.7698 52.4121 65.617 52.0335 66.5527 52.0335C67.4878 52.0335 68.3345 52.4116 68.9501 53.0235C68.9541 53.0276 68.9575 53.0321 68.9616 53.0361C68.9656 53.0402 68.9701 53.0436 68.9743 53.0476C69.5839 53.6657 69.9606 54.5156 69.9606 55.4543C69.9606 56.3982 69.5799 57.2527 68.9643 57.8715L68.9624 57.8732ZM70.014 49.561C69.4717 49.2394 68.8819 48.9898 68.2567 48.8283V43.6037C70.2771 43.894 72.1345 44.6917 73.6956 45.8654L70.014 49.561ZM64.8489 48.8283C64.2235 48.9898 63.6338 49.2394 63.0915 49.5611L59.4098 45.8654C60.971 44.6917 62.8283 43.8939 64.8489 43.6036V48.8283ZM63.0914 61.3478C63.6338 61.6694 64.2235 61.919 64.8488 62.0806V67.3052C62.8283 67.0149 60.9709 66.2172 59.4097 65.0434L63.0914 61.3478ZM68.2567 62.0805C68.882 61.919 69.4718 61.6694 70.014 61.3477L73.6957 65.0434C72.1346 66.2171 70.2772 67.0149 68.2567 67.3052V62.0805ZM73.1538 53.744C72.9929 53.1163 72.7442 52.5242 72.4238 51.9798L76.1054 48.2842C77.2747 49.8513 78.0696 51.7158 78.3587 53.744H73.1538Z" fill="url(#paint2_linear_1001_6480)"/>
</g>
<defs>
<filter id="filter0_dddddddi_1001_6480" x="-56.3867" y="-75" width="205.539" height="207" filterUnits="userSpaceOnUse" color-interpolation-filters="sRGB">
<feFlood flood-opacity="0" result="BackgroundImageFix"/>
<feColorMatrix in="SourceAlpha" type="matrix" values="0 0 0 0 0 0 0 0 0 0 0 0 0 0 0 0 0 0 127 0" result="hardAlpha"/>
<feOffset dy="-1.22278"/>
<feGaussianBlur stdDeviation="1.74359"/>
<feColorMatrix type="matrix" values="0 0 0 0 0.878431 0 0 0 0 0.27451 0 0 0 0 0.192157 0 0 0 0.23386 0"/>
<feBlend mode="normal" in2="BackgroundImageFix" result="effect1_dropShadow_1001_6480"/>
<feColorMatrix in="SourceAlpha" type="matrix" values="0 0 0 0 0 0 0 0 0 0 0 0 0 0 0 0 0 0 127 0" result="hardAlpha"/>
<feOffset dy="-2.12819"/>
<feGaussianBlur stdDeviation="3.03464"/>
<feColorMatrix type="matrix" values="0 0 0 0 0.878431 0 0 0 0 0.27451 0 0 0 0 0.192157 0 0 0 0.27789 0"/>
<feBlend mode="normal" in2="effect1_dropShadow_1001_6480" result="effect2_dropShadow_1001_6480"/>
<feColorMatrix in="SourceAlpha" type="matrix" values="0 0 0 0 0 0 0 0 0 0 0 0 0 0 0 0 0 0 127 0" result="hardAlpha"/>
<feOffset dy="-3.38082"/>
<feGaussianBlur stdDeviation="4.8208"/>
<feColorMatrix type="matrix" values="0 0 0 0 0.878431 0 0 0 0 0.27451 0 0 0 0 0.192157 0 0 0 0.310961 0"/>
<feBlend mode="normal" in2="effect2_dropShadow_1001_6480" result="effect3_dropShadow_1001_6480"/>
<feColorMatrix in="SourceAlpha" type="matrix" values="0 0 0 0 0 0 0 0 0 0 0 0 0 0 0 0 0 0 127 0" result="hardAlpha"/>
<feOffset dy="-5.21635"/>
<feGaussianBlur stdDeviation="7.43813"/>
<feColorMatrix type="matrix" values="0 0 0 0 0.878431 0 0 0 0 0.27451 0 0 0 0 0.192157 0 0 0 0.340442 0"/>
<feBlend mode="normal" in2="effect3_dropShadow_1001_6480" result="effect4_dropShadow_1001_6480"/>
<feColorMatrix in="SourceAlpha" type="matrix" values="0 0 0 0 0 0 0 0 0 0 0 0 0 0 0 0 0 0 127 0" result="hardAlpha"/>
<feOffset dy="-8.13971"/>
<feGaussianBlur stdDeviation="11.6066"/>
<feColorMatrix type="matrix" values="0 0 0 0 0.878431 0 0 0 0 0.27451 0 0 0 0 0.192157 0 0 0 0.372926 0"/>
<feBlend mode="normal" in2="effect4_dropShadow_1001_6480" result="effect5_dropShadow_1001_6480"/>
<feColorMatrix in="SourceAlpha" type="matrix" values="0 0 0 0 0 0 0 0 0 0 0 0 0 0 0 0 0 0 127 0" result="hardAlpha"/>
<feOffset dy="-13.5132"/>
<feGaussianBlur stdDeviation="19.2688"/>
<feColorMatrix type="matrix" values="0 0 0 0 0.878431 0 0 0 0 0.27451 0 0 0 0 0.192157 0 0 0 0.419555 0"/>
<feBlend mode="normal" in2="effect5_dropShadow_1001_6480" result="effect6_dropShadow_1001_6480"/>
<feColorMatrix in="SourceAlpha" type="matrix" values="0 0 0 0 0 0 0 0 0 0 0 0 0 0 0 0 0 0 127 0" result="hardAlpha"/>
<feOffset dy="-27"/>
<feGaussianBlur stdDeviation="38.5"/>
<feColorMatrix type="matrix" values="0 0 0 0 0.879167 0 0 0 0 0.273128 0 0 0 0 0.190486 0 0 0 0.54 0"/>
<feBlend mode="normal" in2="effect6_dropShadow_1001_6480" result="effect7_dropShadow_1001_6480"/>
<feBlend mode="normal" in="SourceGraphic" in2="effect7_dropShadow_1001_6480" result="shape"/>
<feColorMatrix in="SourceAlpha" type="matrix" values="0 0 0 0 0 0 0 0 0 0 0 0 0 0 0 0 0 0 127 0" result="hardAlpha"/>
<feOffset dx="-1"/>
<feGaussianBlur stdDeviation="0.5"/>
<feComposite in2="hardAlpha" operator="arithmetic" k2="-1" k3="1"/>
<feColorMatrix type="matrix" values="0 0 0 0 1 0 0 0 0 1 0 0 0 0 1 0 0 0 1 0"/>
<feBlend mode="overlay" in2="shape" result="effect8_innerShadow_1001_6480"/>
</filter>
<filter id="filter1_i_1001_6480" x="45.6055" y="34.9294" width="41.3945" height="41.0499" filterUnits="userSpaceOnUse" color-interpolation-filters="sRGB">
<feFlood flood-opacity="0" result="BackgroundImageFix"/>
<feBlend mode="normal" in="SourceGraphic" in2="BackgroundImageFix" result="shape"/>
<feColorMatrix in="SourceAlpha" type="matrix" values="0 0 0 0 0 0 0 0 0 0 0 0 0 0 0 0 0 0 127 0" result="hardAlpha"/>
<feOffset dx="-0.5"/>
<feGaussianBlur stdDeviation="0.5"/>
<feComposite in2="hardAlpha" operator="arithmetic" k2="-1" k3="1"/>
<feColorMatrix type="matrix" values="0 0 0 0 1 0 0 0 0 1 0 0 0 0 1 0 0 0 1 0"/>
<feBlend mode="overlay" in2="shape" result="effect1_innerShadow_1001_6480"/>
</filter>
<linearGradient id="paint0_linear_1001_6480" x1="20.6133" y1="55.5" x2="64.5791" y2="33.9343" gradientUnits="userSpaceOnUse">
<stop stop-color="#A03434"/>
<stop offset="1" stop-color="#FF985E"/>
</linearGradient>
<linearGradient id="paint1_linear_1001_6480" x1="90.0519" y1="34.9294" x2="55.2779" y2="57.4099" gradientUnits="userSpaceOnUse">
<stop stop-color="#4EC3E9"/>
<stop offset="1" stop-color="#4E70E9"/>
</linearGradient>
<linearGradient id="paint2_linear_1001_6480" x1="90.0519" y1="34.9294" x2="55.2779" y2="57.4099" gradientUnits="userSpaceOnUse">
<stop stop-color="#4EC3E9"/>
<stop offset="1" stop-color="#4E70E9"/>
</linearGradient>
</defs>
</svg>
