<svg width="107" height="107" viewBox="0 0 107 107" fill="none" xmlns="http://www.w3.org/2000/svg">
<g clip-path="url(#clip0_786_5100)">
<g filter="url(#filter0_dddddddi_786_5100)">
<path d="M37.4542 36.2977C36.8954 36.8584 34.7418 39.0678 35 39.8172C35.2585 40.5664 37.8843 39.7237 38.6689 39.8172C38.6804 39.8186 39.8668 40.0008 40.5933 40.7351C40.7371 40.8806 40.8661 41.0429 40.981 41.2135C38.0578 41.7051 33.2929 42.8634 29.3418 45.5076C23.0713 49.7037 21.1342 57.9087 21.055 58.256C20.838 59.2037 20.1797 63.681 21.055 64.0968C21.9232 64.5092 24.022 60.8389 24.6165 60.0853C24.7625 59.9421 25.7333 59.07 27.6365 59.1465C29.1432 59.207 29.7697 59.8184 31.7092 61.929L31.7175 61.938C32.302 62.574 32.9643 63.2945 33.7635 64.0968C35.0713 65.4099 36.4661 66.434 37.7325 67.2124C37.6698 67.2511 37.6076 67.2903 37.546 67.3303C35.2883 68.7873 33.8297 72.9083 33.5602 73.7196C33.2536 74.6424 32.9299 78.3092 33.7635 78.8072C34.5764 79.2925 36.1136 76.6903 36.7736 76.0281C37.0557 75.892 38.3072 75.3924 41.1851 75.5575C42.6132 75.6394 44.3387 76.8275 46.1656 78.0855L46.1675 78.0868C48.83 79.9211 51.8484 82 55.6406 82C58.3539 82 63.4125 81.5969 67.5612 80.7766C71.4369 80.0103 70.5034 78.8072 66.5527 78.8072C53.7043 78.8072 43.2882 68.3515 43.2882 55.4544C43.2882 42.5572 53.7043 32.1015 66.5527 32.1015C67.3205 32.1015 68.0796 32.1389 68.8284 32.2119C72.5614 32.5757 73.492 31.7529 69.8458 30.8738C65.3747 29.7959 58.9386 29 54.006 29C44.8299 29 37.7512 35.9996 37.4542 36.2977Z" fill="url(#paint0_linear_786_5100)"/>
</g>
<g filter="url(#filter1_i_786_5100)">
<path d="M66.5526 34.9294C55.2601 34.9294 46.1053 44.119 46.1053 55.4544C46.1053 66.7898 55.2601 75.9794 66.5526 75.9794C77.8451 75.9794 86.9999 66.7898 86.9999 55.4544C86.9999 44.119 77.8451 34.9294 66.5526 34.9294ZM66.5526 72.5585C57.1423 72.5585 49.5133 64.9005 49.5133 55.4544C49.5133 46.0083 57.1423 38.3503 66.5526 38.3503C75.963 38.3503 83.592 46.0083 83.592 55.4544C83.592 64.9005 75.963 72.5585 66.5526 72.5585Z" fill="url(#paint1_linear_786_5100)"/>
<path d="M77.4006 44.574C77.3991 44.5725 77.3979 44.5708 77.3963 44.5693C77.3948 44.5678 77.3932 44.5665 77.3916 44.5649C74.6168 41.782 70.7848 40.0607 66.5526 40.0607C62.3215 40.0607 58.4905 41.7811 55.7158 44.5629C55.7136 44.5652 55.711 44.567 55.7088 44.5694C55.7066 44.5717 55.7046 44.5742 55.7024 44.5764C52.9311 47.3616 51.2172 51.2072 51.2172 55.4544C51.2172 59.6926 52.924 63.5306 55.6849 66.3144C55.693 66.3228 55.6998 66.3319 55.7081 66.3402C55.7163 66.3484 55.7253 66.3553 55.7337 66.3634C58.507 69.1348 62.3305 70.8481 66.5526 70.8481C70.7748 70.8481 74.5983 69.1348 77.3716 66.3634C77.38 66.3553 77.389 66.3484 77.3972 66.3402C77.4054 66.3319 77.4123 66.3228 77.4204 66.3144C80.1813 63.5306 81.8881 59.6926 81.8881 55.4544C81.8881 51.2061 80.1733 47.3595 77.4006 44.574ZM76.1054 62.6245L72.4237 58.9289C72.7441 58.3845 72.9928 57.7925 73.1538 57.1649H78.3586C78.0694 59.193 77.2746 61.0574 76.1054 62.6245ZM54.7468 57.1648H59.9516C60.1125 57.7925 60.3612 58.3845 60.6816 58.9288L56.9999 62.6245C55.8307 61.0574 55.0359 59.193 54.7468 57.1648ZM56.9999 48.2843L60.6816 51.9799C60.3612 52.5243 60.1125 53.1163 59.9515 53.7439H54.7467C55.0359 51.7158 55.8307 49.8514 56.9999 48.2843ZM68.9623 57.8732L68.9606 57.8751C68.3441 58.4931 67.4929 58.8752 66.5526 58.8752C65.6122 58.8752 64.761 58.4931 64.1445 57.8751L64.1428 57.8732L64.141 57.8715C63.5253 57.2527 63.1447 56.3982 63.1447 55.4543C63.1447 54.5151 63.5218 53.6646 64.1321 53.0465C64.1358 53.0429 64.1399 53.0398 64.1435 53.0361C64.1472 53.0325 64.1502 53.0284 64.1538 53.0247C64.7697 52.4121 65.6169 52.0335 66.5526 52.0335C67.4876 52.0335 68.3344 52.4116 68.95 53.0235C68.954 53.0276 68.9574 53.0321 68.9614 53.0361C68.9655 53.0402 68.97 53.0436 68.9741 53.0476C69.5838 53.6657 69.9605 54.5156 69.9605 55.4543C69.9605 56.3982 69.5798 57.2527 68.9641 57.8715L68.9623 57.8732ZM70.0138 49.561C69.4716 49.2394 68.8818 48.9898 68.2566 48.8283V43.6037C70.277 43.894 72.1344 44.6917 73.6955 45.8654L70.0138 49.561ZM64.8487 48.8283C64.2234 48.9898 63.6336 49.2394 63.0914 49.5611L59.4097 45.8654C60.9709 44.6917 62.8282 43.8939 64.8487 43.6036V48.8283ZM63.0913 61.3478C63.6336 61.6694 64.2233 61.919 64.8487 62.0806V67.3052C62.8282 67.0149 60.9708 66.2172 59.4096 65.0434L63.0913 61.3478ZM68.2566 62.0805C68.8819 61.919 69.4717 61.6694 70.0139 61.3477L73.6956 65.0434C72.1344 66.2171 70.2771 67.0149 68.2566 67.3052V62.0805ZM73.1537 53.744C72.9927 53.1163 72.7441 52.5242 72.4237 51.9798L76.1053 48.2842C77.2746 49.8513 78.0694 51.7158 78.3586 53.744H73.1537Z" fill="url(#paint2_linear_786_5100)"/>
</g>
</g>
<defs>
<filter id="filter0_dddddddi_786_5100" x="-56.3868" y="-75" width="205.539" height="207" filterUnits="userSpaceOnUse" color-interpolation-filters="sRGB">
<feFlood flood-opacity="0" result="BackgroundImageFix"/>
<feColorMatrix in="SourceAlpha" type="matrix" values="0 0 0 0 0 0 0 0 0 0 0 0 0 0 0 0 0 0 127 0" result="hardAlpha"/>
<feOffset dy="-1.22278"/>
<feGaussianBlur stdDeviation="1.74359"/>
<feColorMatrix type="matrix" values="0 0 0 0 0.878431 0 0 0 0 0.27451 0 0 0 0 0.192157 0 0 0 0.23386 0"/>
<feBlend mode="normal" in2="BackgroundImageFix" result="effect1_dropShadow_786_5100"/>
<feColorMatrix in="SourceAlpha" type="matrix" values="0 0 0 0 0 0 0 0 0 0 0 0 0 0 0 0 0 0 127 0" result="hardAlpha"/>
<feOffset dy="-2.12819"/>
<feGaussianBlur stdDeviation="3.03464"/>
<feColorMatrix type="matrix" values="0 0 0 0 0.878431 0 0 0 0 0.27451 0 0 0 0 0.192157 0 0 0 0.27789 0"/>
<feBlend mode="normal" in2="effect1_dropShadow_786_5100" result="effect2_dropShadow_786_5100"/>
<feColorMatrix in="SourceAlpha" type="matrix" values="0 0 0 0 0 0 0 0 0 0 0 0 0 0 0 0 0 0 127 0" result="hardAlpha"/>
<feOffset dy="-3.38082"/>
<feGaussianBlur stdDeviation="4.8208"/>
<feColorMatrix type="matrix" values="0 0 0 0 0.878431 0 0 0 0 0.27451 0 0 0 0 0.192157 0 0 0 0.310961 0"/>
<feBlend mode="normal" in2="effect2_dropShadow_786_5100" result="effect3_dropShadow_786_5100"/>
<feColorMatrix in="SourceAlpha" type="matrix" values="0 0 0 0 0 0 0 0 0 0 0 0 0 0 0 0 0 0 127 0" result="hardAlpha"/>
<feOffset dy="-5.21635"/>
<feGaussianBlur stdDeviation="7.43813"/>
<feColorMatrix type="matrix" values="0 0 0 0 0.878431 0 0 0 0 0.27451 0 0 0 0 0.192157 0 0 0 0.340442 0"/>
<feBlend mode="normal" in2="effect3_dropShadow_786_5100" result="effect4_dropShadow_786_5100"/>
<feColorMatrix in="SourceAlpha" type="matrix" values="0 0 0 0 0 0 0 0 0 0 0 0 0 0 0 0 0 0 127 0" result="hardAlpha"/>
<feOffset dy="-8.13971"/>
<feGaussianBlur stdDeviation="11.6066"/>
<feColorMatrix type="matrix" values="0 0 0 0 0.878431 0 0 0 0 0.27451 0 0 0 0 0.192157 0 0 0 0.372926 0"/>
<feBlend mode="normal" in2="effect4_dropShadow_786_5100" result="effect5_dropShadow_786_5100"/>
<feColorMatrix in="SourceAlpha" type="matrix" values="0 0 0 0 0 0 0 0 0 0 0 0 0 0 0 0 0 0 127 0" result="hardAlpha"/>
<feOffset dy="-13.5132"/>
<feGaussianBlur stdDeviation="19.2688"/>
<feColorMatrix type="matrix" values="0 0 0 0 0.878431 0 0 0 0 0.27451 0 0 0 0 0.192157 0 0 0 0.419555 0"/>
<feBlend mode="normal" in2="effect5_dropShadow_786_5100" result="effect6_dropShadow_786_5100"/>
<feColorMatrix in="SourceAlpha" type="matrix" values="0 0 0 0 0 0 0 0 0 0 0 0 0 0 0 0 0 0 127 0" result="hardAlpha"/>
<feOffset dy="-27"/>
<feGaussianBlur stdDeviation="38.5"/>
<feColorMatrix type="matrix" values="0 0 0 0 0.879167 0 0 0 0 0.273128 0 0 0 0 0.190486 0 0 0 0.54 0"/>
<feBlend mode="normal" in2="effect6_dropShadow_786_5100" result="effect7_dropShadow_786_5100"/>
<feBlend mode="normal" in="SourceGraphic" in2="effect7_dropShadow_786_5100" result="shape"/>
<feColorMatrix in="SourceAlpha" type="matrix" values="0 0 0 0 0 0 0 0 0 0 0 0 0 0 0 0 0 0 127 0" result="hardAlpha"/>
<feOffset dx="-1"/>
<feGaussianBlur stdDeviation="0.5"/>
<feComposite in2="hardAlpha" operator="arithmetic" k2="-1" k3="1"/>
<feColorMatrix type="matrix" values="0 0 0 0 1 0 0 0 0 1 0 0 0 0 1 0 0 0 1 0"/>
<feBlend mode="overlay" in2="shape" result="effect8_innerShadow_786_5100"/>
</filter>
<filter id="filter1_i_786_5100" x="45.6053" y="34.9294" width="41.3947" height="41.0498" filterUnits="userSpaceOnUse" color-interpolation-filters="sRGB">
<feFlood flood-opacity="0" result="BackgroundImageFix"/>
<feBlend mode="normal" in="SourceGraphic" in2="BackgroundImageFix" result="shape"/>
<feColorMatrix in="SourceAlpha" type="matrix" values="0 0 0 0 0 0 0 0 0 0 0 0 0 0 0 0 0 0 127 0" result="hardAlpha"/>
<feOffset dx="-0.5"/>
<feGaussianBlur stdDeviation="0.5"/>
<feComposite in2="hardAlpha" operator="arithmetic" k2="-1" k3="1"/>
<feColorMatrix type="matrix" values="0 0 0 0 1 0 0 0 0 1 0 0 0 0 1 0 0 0 1 0"/>
<feBlend mode="overlay" in2="shape" result="effect1_innerShadow_786_5100"/>
</filter>
<linearGradient id="paint0_linear_786_5100" x1="20.6132" y1="55.5" x2="64.579" y2="33.9343" gradientUnits="userSpaceOnUse">
<stop stop-color="#A03434"/>
<stop offset="1" stop-color="#FF985E"/>
</linearGradient>
<linearGradient id="paint1_linear_786_5100" x1="90.0518" y1="34.9294" x2="55.2778" y2="57.4099" gradientUnits="userSpaceOnUse">
<stop stop-color="#4EC3E9"/>
<stop offset="1" stop-color="#4E70E9"/>
</linearGradient>
<linearGradient id="paint2_linear_786_5100" x1="90.0518" y1="34.9294" x2="55.2778" y2="57.4099" gradientUnits="userSpaceOnUse">
<stop stop-color="#4EC3E9"/>
<stop offset="1" stop-color="#4E70E9"/>
</linearGradient>
<clipPath id="clip0_786_5100">
<rect width="107" height="107" fill="white"/>
</clipPath>
</defs>
</svg>
