<svg width="321" height="321" viewBox="0 0 321 321" fill="none" xmlns="http://www.w3.org/2000/svg">
<g clip-path="url(#clip0_1049_15097)">
<g filter="url(#filter0_dddddddi_1049_15097)">
<path d="M112.362 108.893C110.686 110.575 104.225 117.203 105 119.452C105.775 121.699 113.653 119.171 116.006 119.452C116.041 119.456 119.6 120.002 121.78 122.205C122.211 122.642 122.598 123.129 122.943 123.64C114.173 125.115 99.8787 128.59 88.0252 136.523C69.2138 149.111 63.4025 173.726 63.1649 174.768C62.514 177.611 60.539 191.043 63.1649 192.29C65.7694 193.528 72.0658 182.517 73.8494 180.256C74.2875 179.826 77.1997 177.21 82.9094 177.44C87.4296 177.621 89.3089 179.455 95.1276 185.787L95.1523 185.814C96.9058 187.722 98.8927 189.884 101.29 192.29C105.214 196.23 109.398 199.302 113.197 201.637C113.009 201.753 112.823 201.871 112.638 201.991C105.865 206.362 101.489 218.725 100.681 221.159C99.7607 223.927 98.7897 234.928 101.29 236.422C103.729 237.878 108.341 230.071 110.321 228.084C111.167 227.676 114.922 226.177 123.555 226.672C127.839 226.918 133.016 230.483 138.497 234.257L138.502 234.261C146.49 239.763 155.545 246 166.922 246C175.408 246 191.54 244.686 204.255 242.009C215.057 239.736 212.294 236.154 201.258 236.404C200.726 236.416 200.193 236.422 199.658 236.422C161.113 236.422 129.865 205.055 129.865 166.363C129.865 127.672 161.113 96.3046 199.658 96.3046C206.396 96.3046 212.912 97.2633 219.076 99.0521C222.678 100.097 225.096 98.2638 221.732 96.6039C211.503 91.5556 182.458 87 162.018 87C134.49 87 113.253 107.999 112.362 108.893Z" fill="url(#paint0_linear_1049_15097)"/>
</g>
<g filter="url(#filter1_i_1049_15097)">
<path d="M199.658 104.788C165.78 104.788 138.316 132.357 138.316 166.363C138.316 200.369 165.78 227.938 199.658 227.938C233.535 227.938 261 200.369 261 166.363C261 132.357 233.535 104.788 199.658 104.788ZM199.658 217.676C171.427 217.676 148.54 194.702 148.54 166.363C148.54 138.025 171.427 115.051 199.658 115.051C227.889 115.051 250.776 138.025 250.776 166.363C250.776 194.702 227.889 217.676 199.658 217.676Z" fill="url(#paint1_linear_1049_15097)"/>
<path d="M232.202 133.722C232.197 133.717 232.193 133.712 232.189 133.708C232.184 133.703 232.179 133.699 232.175 133.695C223.85 125.346 212.354 120.182 199.658 120.182C186.964 120.182 175.471 125.343 167.147 133.689C167.141 133.696 167.133 133.701 167.126 133.708C167.12 133.715 167.114 133.723 167.107 133.729C158.793 142.085 153.651 153.622 153.651 166.363C153.651 179.078 158.772 190.592 167.055 198.943C167.079 198.969 167.099 198.996 167.124 199.02C167.149 199.045 167.176 199.066 167.201 199.09C175.521 207.405 186.991 212.544 199.658 212.544C212.324 212.544 223.795 207.405 232.115 199.09C232.14 199.066 232.167 199.045 232.192 199.02C232.216 198.996 232.237 198.969 232.261 198.943C240.544 190.592 245.664 179.078 245.664 166.363C245.664 153.618 240.52 142.078 232.202 133.722ZM228.316 187.874L217.271 176.787C218.232 175.153 218.978 173.377 219.461 171.495H235.076C234.208 177.579 231.824 183.172 228.316 187.874ZM164.24 171.494H179.855C180.338 173.377 181.083 175.153 182.045 176.786L171 187.874C167.492 183.172 165.107 177.579 164.24 171.494ZM171 144.853L182.045 155.94C181.083 157.573 180.337 159.349 179.854 161.232H164.24C165.107 155.147 167.492 149.554 171 144.853ZM206.887 173.62L206.882 173.625C205.032 175.479 202.479 176.626 199.658 176.626C196.837 176.626 194.283 175.479 192.433 173.625L192.428 173.62L192.423 173.615C190.576 171.758 189.434 169.195 189.434 166.363C189.434 163.545 190.565 160.994 192.396 159.139C192.407 159.129 192.419 159.119 192.43 159.108C192.442 159.097 192.451 159.085 192.461 159.074C194.309 157.236 196.85 156.1 199.658 156.1C202.463 156.1 205.003 157.235 206.85 159.07C206.862 159.083 206.872 159.096 206.884 159.108C206.896 159.121 206.91 159.131 206.922 159.143C208.751 160.997 209.881 163.547 209.881 166.363C209.881 169.195 208.739 171.758 206.892 173.615L206.887 173.62ZM210.041 148.683C208.415 147.718 206.645 146.97 204.77 146.485V130.811C210.831 131.682 216.403 134.075 221.086 137.596L210.041 148.683ZM194.546 146.485C192.67 146.97 190.901 147.718 189.274 148.683L178.229 137.596C182.912 134.075 188.484 131.682 194.546 130.811V146.485ZM189.274 184.043C190.901 185.008 192.67 185.757 194.546 186.242V201.915C188.484 201.045 182.912 198.652 178.229 195.13L189.274 184.043ZM204.77 186.242C206.646 185.757 208.415 185.008 210.042 184.043L221.087 195.13C216.403 198.651 210.831 201.045 204.77 201.915V186.242ZM219.461 161.232C218.978 159.349 218.232 157.573 217.271 155.939L228.316 144.853C231.824 149.554 234.208 155.147 235.076 161.232H219.461Z" fill="url(#paint2_linear_1049_15097)"/>
</g>
</g>
<defs>
<filter id="filter0_dddddddi_1049_15097" x="-15.1606" y="-17" width="315.5" height="313" filterUnits="userSpaceOnUse" color-interpolation-filters="sRGB">
<feFlood flood-opacity="0" result="BackgroundImageFix"/>
<feColorMatrix in="SourceAlpha" type="matrix" values="0 0 0 0 0 0 0 0 0 0 0 0 0 0 0 0 0 0 127 0" result="hardAlpha"/>
<feOffset dy="-1.22278"/>
<feGaussianBlur stdDeviation="1.74359"/>
<feColorMatrix type="matrix" values="0 0 0 0 0.878431 0 0 0 0 0.27451 0 0 0 0 0.192157 0 0 0 0.23386 0"/>
<feBlend mode="normal" in2="BackgroundImageFix" result="effect1_dropShadow_1049_15097"/>
<feColorMatrix in="SourceAlpha" type="matrix" values="0 0 0 0 0 0 0 0 0 0 0 0 0 0 0 0 0 0 127 0" result="hardAlpha"/>
<feOffset dy="-2.12819"/>
<feGaussianBlur stdDeviation="3.03464"/>
<feColorMatrix type="matrix" values="0 0 0 0 0.878431 0 0 0 0 0.27451 0 0 0 0 0.192157 0 0 0 0.27789 0"/>
<feBlend mode="normal" in2="effect1_dropShadow_1049_15097" result="effect2_dropShadow_1049_15097"/>
<feColorMatrix in="SourceAlpha" type="matrix" values="0 0 0 0 0 0 0 0 0 0 0 0 0 0 0 0 0 0 127 0" result="hardAlpha"/>
<feOffset dy="-3.38082"/>
<feGaussianBlur stdDeviation="4.8208"/>
<feColorMatrix type="matrix" values="0 0 0 0 0.878431 0 0 0 0 0.27451 0 0 0 0 0.192157 0 0 0 0.310961 0"/>
<feBlend mode="normal" in2="effect2_dropShadow_1049_15097" result="effect3_dropShadow_1049_15097"/>
<feColorMatrix in="SourceAlpha" type="matrix" values="0 0 0 0 0 0 0 0 0 0 0 0 0 0 0 0 0 0 127 0" result="hardAlpha"/>
<feOffset dy="-5.21635"/>
<feGaussianBlur stdDeviation="7.43813"/>
<feColorMatrix type="matrix" values="0 0 0 0 0.878431 0 0 0 0 0.27451 0 0 0 0 0.192157 0 0 0 0.340442 0"/>
<feBlend mode="normal" in2="effect3_dropShadow_1049_15097" result="effect4_dropShadow_1049_15097"/>
<feColorMatrix in="SourceAlpha" type="matrix" values="0 0 0 0 0 0 0 0 0 0 0 0 0 0 0 0 0 0 127 0" result="hardAlpha"/>
<feOffset dy="-8.13971"/>
<feGaussianBlur stdDeviation="11.6066"/>
<feColorMatrix type="matrix" values="0 0 0 0 0.878431 0 0 0 0 0.27451 0 0 0 0 0.192157 0 0 0 0.372926 0"/>
<feBlend mode="normal" in2="effect4_dropShadow_1049_15097" result="effect5_dropShadow_1049_15097"/>
<feColorMatrix in="SourceAlpha" type="matrix" values="0 0 0 0 0 0 0 0 0 0 0 0 0 0 0 0 0 0 127 0" result="hardAlpha"/>
<feOffset dy="-13.5132"/>
<feGaussianBlur stdDeviation="19.2688"/>
<feColorMatrix type="matrix" values="0 0 0 0 0.878431 0 0 0 0 0.27451 0 0 0 0 0.192157 0 0 0 0.419555 0"/>
<feBlend mode="normal" in2="effect5_dropShadow_1049_15097" result="effect6_dropShadow_1049_15097"/>
<feColorMatrix in="SourceAlpha" type="matrix" values="0 0 0 0 0 0 0 0 0 0 0 0 0 0 0 0 0 0 127 0" result="hardAlpha"/>
<feOffset dy="-27"/>
<feGaussianBlur stdDeviation="38.5"/>
<feColorMatrix type="matrix" values="0 0 0 0 0.879167 0 0 0 0 0.273128 0 0 0 0 0.190486 0 0 0 0.54 0"/>
<feBlend mode="normal" in2="effect6_dropShadow_1049_15097" result="effect7_dropShadow_1049_15097"/>
<feBlend mode="normal" in="SourceGraphic" in2="effect7_dropShadow_1049_15097" result="shape"/>
<feColorMatrix in="SourceAlpha" type="matrix" values="0 0 0 0 0 0 0 0 0 0 0 0 0 0 0 0 0 0 127 0" result="hardAlpha"/>
<feOffset dx="-1"/>
<feGaussianBlur stdDeviation="0.5"/>
<feComposite in2="hardAlpha" operator="arithmetic" k2="-1" k3="1"/>
<feColorMatrix type="matrix" values="0 0 0 0 1 0 0 0 0 1 0 0 0 0 1 0 0 0 1 0"/>
<feBlend mode="overlay" in2="shape" result="effect8_innerShadow_1049_15097"/>
</filter>
<filter id="filter1_i_1049_15097" x="137.816" y="104.788" width="123.184" height="123.15" filterUnits="userSpaceOnUse" color-interpolation-filters="sRGB">
<feFlood flood-opacity="0" result="BackgroundImageFix"/>
<feBlend mode="normal" in="SourceGraphic" in2="BackgroundImageFix" result="shape"/>
<feColorMatrix in="SourceAlpha" type="matrix" values="0 0 0 0 0 0 0 0 0 0 0 0 0 0 0 0 0 0 127 0" result="hardAlpha"/>
<feOffset dx="-0.5"/>
<feGaussianBlur stdDeviation="0.5"/>
<feComposite in2="hardAlpha" operator="arithmetic" k2="-1" k3="1"/>
<feColorMatrix type="matrix" values="0 0 0 0 1 0 0 0 0 1 0 0 0 0 1 0 0 0 1 0"/>
<feBlend mode="overlay" in2="shape" result="effect1_innerShadow_1049_15097"/>
</filter>
<linearGradient id="paint0_linear_1049_15097" x1="61.8394" y1="166.5" x2="193.737" y2="101.803" gradientUnits="userSpaceOnUse">
<stop stop-color="#A03434"/>
<stop offset="1" stop-color="#FF985E"/>
</linearGradient>
<linearGradient id="paint1_linear_1049_15097" x1="270.155" y1="104.788" x2="165.833" y2="172.23" gradientUnits="userSpaceOnUse">
<stop stop-color="#4EC3E9"/>
<stop offset="1" stop-color="#4E70E9"/>
</linearGradient>
<linearGradient id="paint2_linear_1049_15097" x1="270.155" y1="104.788" x2="165.833" y2="172.23" gradientUnits="userSpaceOnUse">
<stop stop-color="#4EC3E9"/>
<stop offset="1" stop-color="#4E70E9"/>
</linearGradient>
<clipPath id="clip0_1049_15097">
<rect width="321" height="321" fill="white"/>
</clipPath>
</defs>
</svg>
